G04 DipTrace 2.4.0.2*
%IN7seg2x4.bottomsilkscreen.ger*%
%MOIN*%
%ADD10C,0.0098*%
%ADD15C,0.0106*%
%ADD56C,0.0077*%
%ADD57C,0.0093*%
%FSLAX44Y44*%
G04*
G70*
G90*
G75*
G01*
%LNBotSilk*%
%LPD*%
X23837Y9636D2*
D10*
Y7238D1*
X25037Y9636D2*
Y7238D1*
G02X23837Y7238I-600J-1D01*
G01*
Y9636D2*
G02X25037Y9636I600J1D01*
G01*
X21439Y10937D2*
X23435D1*
Y11937D2*
Y10937D1*
X21439Y11937D2*
X23435D1*
X21439D2*
Y10937D1*
X23579Y9461D2*
X11295D1*
Y7413D2*
Y9461D1*
X23579Y7413D2*
X11295D1*
X23579D2*
Y8201D1*
Y9461D2*
Y8673D1*
Y8201D2*
G02X23579Y8673I0J236D01*
G01*
X25031Y8386D2*
D15*
G02X23846Y8394I-592J97D01*
G01*
X25207Y9141D2*
D56*
X25231Y9213D1*
X25303Y9261D1*
X25422Y9284D1*
X25494D1*
X25613Y9261D1*
X25685Y9213D1*
X25709Y9141D1*
Y9093D1*
X25685Y9021D1*
X25613Y8974D1*
X25494Y8949D1*
X25422D1*
X25303Y8974D1*
X25231Y9021D1*
X25207Y9093D1*
Y9141D1*
X25303Y8974D2*
X25613Y9261D1*
X25685Y8747D2*
X25709Y8771D1*
X25685Y8795D1*
X25661Y8771D1*
X25685Y8747D1*
X25733D1*
X25781Y8771D1*
X25805Y8795D1*
X25303Y8593D2*
X25278Y8545D1*
X25207Y8473D1*
X25709D1*
X25374Y8318D2*
X25613D1*
X25685Y8294D1*
X25709Y8246D1*
Y8175D1*
X25685Y8127D1*
X25613Y8055D1*
X25374D2*
X25709D1*
X25207Y7590D2*
Y7901D1*
X25709D1*
X25446D2*
Y7710D1*
X22604Y11479D2*
X22389D1*
X22318Y11503D1*
X22293Y11527D1*
X22270Y11575D1*
Y11623D1*
X22293Y11670D1*
X22318Y11695D1*
X22389Y11718D1*
X22604D1*
Y11216D1*
X22437Y11479D2*
X22270Y11216D1*
X19352Y8216D2*
Y8718D1*
X19543Y8216D1*
X19735Y8718D1*
Y8216D1*
X18815D2*
X19007Y8718D1*
X19198Y8216D1*
X19126Y8383D2*
X18887D1*
X18660Y8718D2*
X18325Y8216D1*
Y8718D2*
X18660Y8216D1*
X18075D2*
X17836Y8718D1*
X18171D1*
X17657Y8598D2*
Y8622D1*
X17634Y8670D1*
X17610Y8694D1*
X17562Y8718D1*
X17466D1*
X17419Y8694D1*
X17395Y8670D1*
X17371Y8622D1*
Y8575D1*
X17395Y8527D1*
X17442Y8455D1*
X17682Y8216D1*
X17347D1*
X17192Y8622D2*
X17144Y8646D1*
X17072Y8718D1*
Y8216D1*
X16607Y8551D2*
X16631Y8479D1*
X16679Y8431D1*
X16751Y8407D1*
X16774D1*
X16846Y8431D1*
X16894Y8479D1*
X16918Y8551D1*
Y8575D1*
X16894Y8646D1*
X16846Y8694D1*
X16774Y8718D1*
X16751D1*
X16679Y8694D1*
X16631Y8646D1*
X16607Y8551D1*
Y8431D1*
X16631Y8312D1*
X16679Y8240D1*
X16751Y8216D1*
X16798D1*
X16870Y8240D1*
X16894Y8288D1*
X16142Y8718D2*
X16452D1*
Y8216D1*
X16142D1*
X16452Y8479D2*
X16261D1*
X15653Y8718D2*
Y8216D1*
X15987Y8718D1*
Y8216D1*
X15139Y8599D2*
X15163Y8646D1*
X15211Y8695D1*
X15259Y8718D1*
X15354D1*
X15403Y8695D1*
X15450Y8646D1*
X15474Y8599D1*
X15498Y8527D1*
Y8407D1*
X15474Y8336D1*
X15450Y8288D1*
X15403Y8240D1*
X15354Y8216D1*
X15259D1*
X15211Y8240D1*
X15163Y8288D1*
X15139Y8336D1*
Y8407D1*
X15259D1*
X7223Y6690D2*
D57*
Y6173D1*
X7481Y6431D2*
X6965D1*
X6435Y6733D2*
X6722D1*
X6750Y6475D1*
X6722Y6503D1*
X6636Y6533D1*
X6550D1*
X6464Y6503D1*
X6406Y6446D1*
X6378Y6360D1*
Y6303D1*
X6406Y6217D1*
X6464Y6159D1*
X6550Y6131D1*
X6636D1*
X6722Y6159D1*
X6750Y6188D1*
X6779Y6245D1*
X6192Y6734D2*
X5963Y6131D1*
X5733Y6734D1*
X6908Y7653D2*
X6936Y7710D1*
X6994Y7767D1*
X7051Y7796D1*
X7166D1*
X7223Y7767D1*
X7280Y7710D1*
X7310Y7653D1*
X7338Y7567D1*
Y7423D1*
X7310Y7337D1*
X7280Y7279D1*
X7223Y7222D1*
X7166Y7193D1*
X7051D1*
X6994Y7222D1*
X6936Y7279D1*
X6908Y7337D1*
Y7423D1*
X7051D1*
X6321Y7796D2*
Y7193D1*
X6722Y7796D1*
Y7193D1*
X6135Y7796D2*
Y7193D1*
X5934D1*
X5848Y7222D1*
X5790Y7279D1*
X5762Y7337D1*
X5733Y7423D1*
Y7567D1*
X5762Y7653D1*
X5790Y7710D1*
X5848Y7767D1*
X5934Y7796D1*
X6135D1*
X7954Y8734D2*
Y8131D1*
X7610D1*
X7252Y8734D2*
X7310Y8705D1*
X7367Y8647D1*
X7396Y8590D1*
X7424Y8504D1*
Y8360D1*
X7396Y8275D1*
X7367Y8217D1*
X7310Y8160D1*
X7252Y8131D1*
X7137D1*
X7080Y8160D1*
X7022Y8217D1*
X6994Y8275D1*
X6965Y8360D1*
Y8504D1*
X6994Y8590D1*
X7022Y8647D1*
X7080Y8705D1*
X7137Y8734D1*
X7252D1*
X6321Y8131D2*
X6551Y8734D1*
X6780Y8131D1*
X6694Y8332D2*
X6407D1*
X6135Y8734D2*
Y8131D1*
X5934D1*
X5848Y8160D1*
X5790Y8217D1*
X5762Y8275D1*
X5733Y8360D1*
Y8504D1*
X5762Y8590D1*
X5790Y8647D1*
X5848Y8705D1*
X5934Y8734D1*
X6135D1*
X6787Y9653D2*
X6816Y9710D1*
X6874Y9767D1*
X6931Y9796D1*
X7045D1*
X7103Y9767D1*
X7160Y9710D1*
X7189Y9653D1*
X7218Y9567D1*
Y9423D1*
X7189Y9337D1*
X7160Y9279D1*
X7103Y9222D1*
X7045Y9193D1*
X6931D1*
X6874Y9222D1*
X6816Y9279D1*
X6787Y9337D1*
X6602Y9796D2*
Y9193D1*
X6258D1*
X6073Y9796D2*
Y9193D1*
X5671Y9796D2*
X6073Y9394D1*
X5929Y9538D2*
X5671Y9193D1*
X8233Y10796D2*
Y10193D1*
X8032D1*
X7946Y10222D1*
X7888Y10279D1*
X7859Y10337D1*
X7831Y10423D1*
Y10567D1*
X7859Y10653D1*
X7888Y10710D1*
X7946Y10767D1*
X8032Y10796D1*
X8233D1*
X7301Y10595D2*
Y10193D1*
Y10509D2*
X7358Y10567D1*
X7416Y10595D1*
X7502D1*
X7559Y10567D1*
X7616Y10509D1*
X7646Y10423D1*
Y10366D1*
X7616Y10279D1*
X7559Y10222D1*
X7502Y10193D1*
X7416D1*
X7358Y10222D1*
X7301Y10279D1*
X7030Y10796D2*
Y10308D1*
X7001Y10222D1*
X6944Y10193D1*
X6887D1*
X7116Y10595D2*
X6915D1*
X6357D2*
Y10193D1*
Y10509D2*
X6414Y10567D1*
X6472Y10595D1*
X6557D1*
X6615Y10567D1*
X6672Y10509D1*
X6701Y10423D1*
Y10366D1*
X6672Y10279D1*
X6615Y10222D1*
X6557Y10193D1*
X6472D1*
X6414Y10222D1*
X6357Y10279D1*
X6172Y10796D2*
Y10193D1*
X5987Y10595D2*
Y10193D1*
Y10480D2*
X5900Y10567D1*
X5843Y10595D1*
X5757D1*
X5699Y10567D1*
X5671Y10480D1*
Y10193D1*
X39684Y9381D2*
Y9984D1*
X39913Y9381D1*
X40143Y9984D1*
Y9381D1*
X39154Y9783D2*
Y9381D1*
Y9696D2*
X39211Y9754D1*
X39269Y9783D1*
X39355D1*
X39412Y9754D1*
X39469Y9696D1*
X39498Y9610D1*
Y9553D1*
X39469Y9467D1*
X39412Y9410D1*
X39355Y9381D1*
X39269D1*
X39211Y9410D1*
X39154Y9467D1*
X38969Y9783D2*
X38653Y9381D1*
Y9783D2*
X38969Y9381D1*
X38353D2*
X38066Y9983D1*
X38468D1*
X37852Y9840D2*
Y9868D1*
X37823Y9926D1*
X37795Y9954D1*
X37737Y9983D1*
X37622D1*
X37565Y9954D1*
X37537Y9926D1*
X37507Y9868D1*
Y9811D1*
X37537Y9753D1*
X37594Y9668D1*
X37881Y9381D1*
X37479D1*
X37294Y9868D2*
X37236Y9897D1*
X37150Y9983D1*
Y9381D1*
X36591Y9783D2*
X36620Y9696D1*
X36677Y9639D1*
X36763Y9610D1*
X36792D1*
X36878Y9639D1*
X36935Y9696D1*
X36964Y9783D1*
Y9811D1*
X36935Y9897D1*
X36878Y9954D1*
X36792Y9983D1*
X36763D1*
X36677Y9954D1*
X36620Y9897D1*
X36591Y9783D1*
Y9639D1*
X36620Y9495D1*
X36677Y9409D1*
X36763Y9381D1*
X36821D1*
X36907Y9409D1*
X36935Y9467D1*
X35708Y9381D2*
X35421Y9983D1*
X35823D1*
X34250Y9897D2*
X34307Y9955D1*
X34393Y9984D1*
X34508D1*
X34594Y9955D1*
X34652Y9897D1*
Y9840D1*
X34623Y9783D1*
X34594Y9754D1*
X34537Y9726D1*
X34365Y9668D1*
X34307Y9639D1*
X34279Y9610D1*
X34250Y9553D1*
Y9467D1*
X34307Y9410D1*
X34393Y9381D1*
X34508D1*
X34594Y9410D1*
X34652Y9467D1*
X34065Y9610D2*
X33721D1*
Y9668D1*
X33749Y9726D1*
X33778Y9754D1*
X33835Y9783D1*
X33922D1*
X33979Y9754D1*
X34036Y9696D1*
X34065Y9610D1*
Y9553D1*
X34036Y9467D1*
X33979Y9410D1*
X33922Y9381D1*
X33835D1*
X33778Y9410D1*
X33721Y9467D1*
X33191Y9754D2*
Y9294D1*
X33220Y9209D1*
X33248Y9180D1*
X33306Y9151D1*
X33392D1*
X33449Y9180D1*
X33191Y9668D2*
X33248Y9725D1*
X33306Y9754D1*
X33392D1*
X33449Y9725D1*
X33507Y9668D1*
X33535Y9582D1*
Y9524D1*
X33507Y9438D1*
X33449Y9381D1*
X33392Y9352D1*
X33306D1*
X33248Y9381D1*
X33191Y9438D1*
X33006Y9783D2*
Y9381D1*
Y9668D2*
X32920Y9754D1*
X32862Y9783D1*
X32776D1*
X32719Y9754D1*
X32690Y9668D1*
Y9381D1*
Y9668D2*
X32604Y9754D1*
X32546Y9783D1*
X32461D1*
X32403Y9754D1*
X32374Y9668D1*
Y9381D1*
X32189Y9610D2*
X31844D1*
Y9668D1*
X31873Y9726D1*
X31901Y9754D1*
X31959Y9783D1*
X32045D1*
X32102Y9754D1*
X32160Y9696D1*
X32189Y9610D1*
Y9553D1*
X32160Y9467D1*
X32102Y9410D1*
X32045Y9381D1*
X31959D1*
X31901Y9410D1*
X31844Y9467D1*
X31659Y9783D2*
Y9381D1*
Y9668D2*
X31573Y9754D1*
X31515Y9783D1*
X31430D1*
X31372Y9754D1*
X31343Y9668D1*
Y9381D1*
X31072Y9984D2*
Y9495D1*
X31043Y9410D1*
X30986Y9381D1*
X30929D1*
X31158Y9783D2*
X30957D1*
X40156Y8416D2*
X40041Y8014D1*
X39927Y8416D1*
X39812Y8014D1*
X39697Y8416D1*
X39512D2*
X39397Y8014D1*
X39282Y8416D1*
X39168Y8014D1*
X39053Y8416D1*
X38868D2*
X38753Y8014D1*
X38638Y8416D1*
X38523Y8014D1*
X38409Y8416D1*
X38195Y8072D2*
X38223Y8043D1*
X38195Y8014D1*
X38166Y8043D1*
X38195Y8072D1*
X37636Y8416D2*
Y8014D1*
Y8330D2*
X37693Y8387D1*
X37751Y8416D1*
X37836D1*
X37894Y8387D1*
X37951Y8330D1*
X37980Y8243D1*
Y8186D1*
X37951Y8100D1*
X37894Y8043D1*
X37836Y8014D1*
X37751D1*
X37693Y8043D1*
X37636Y8100D1*
X37451Y8617D2*
Y8014D1*
X36921Y8416D2*
Y8014D1*
Y8330D2*
X36978Y8387D1*
X37036Y8416D1*
X37122D1*
X37179Y8387D1*
X37236Y8330D1*
X37266Y8243D1*
Y8186D1*
X37236Y8100D1*
X37179Y8043D1*
X37122Y8014D1*
X37036D1*
X36978Y8043D1*
X36921Y8100D1*
X36736Y8617D2*
X36708Y8588D1*
X36678Y8617D1*
X36708Y8646D1*
X36736Y8617D1*
X36708Y8416D2*
Y8014D1*
X36493Y8416D2*
Y8014D1*
Y8301D2*
X36407Y8387D1*
X36349Y8416D1*
X36264D1*
X36206Y8387D1*
X36177Y8301D1*
Y8014D1*
X35676Y8330D2*
X35705Y8387D1*
X35791Y8416D1*
X35877D1*
X35964Y8387D1*
X35992Y8330D1*
X35964Y8273D1*
X35906Y8243D1*
X35763Y8215D1*
X35705Y8186D1*
X35676Y8129D1*
Y8100D1*
X35705Y8043D1*
X35791Y8014D1*
X35877D1*
X35964Y8043D1*
X35992Y8100D1*
X35491Y8416D2*
Y7813D1*
Y8330D2*
X35434Y8387D1*
X35376Y8416D1*
X35290D1*
X35233Y8387D1*
X35176Y8330D1*
X35146Y8243D1*
Y8186D1*
X35176Y8100D1*
X35233Y8043D1*
X35290Y8014D1*
X35376D1*
X35434Y8043D1*
X35491Y8100D1*
X34961Y8416D2*
Y8014D1*
Y8243D2*
X34932Y8330D1*
X34875Y8387D1*
X34817Y8416D1*
X34731D1*
X34402D2*
X34459Y8387D1*
X34517Y8330D1*
X34546Y8243D1*
Y8186D1*
X34517Y8100D1*
X34459Y8043D1*
X34402Y8014D1*
X34316D1*
X34258Y8043D1*
X34201Y8100D1*
X34172Y8186D1*
Y8243D1*
X34201Y8330D1*
X34258Y8387D1*
X34316Y8416D1*
X34402D1*
X33872Y8618D2*
X33843Y8589D1*
X33815Y8618D1*
X33843Y8646D1*
X33872Y8618D1*
X33843Y8417D2*
Y7928D1*
X33872Y7842D1*
X33929Y7814D1*
X33987D1*
X33629Y8243D2*
X33285D1*
Y8301D1*
X33314Y8359D1*
X33342Y8387D1*
X33400Y8416D1*
X33486D1*
X33543Y8387D1*
X33601Y8330D1*
X33629Y8243D1*
Y8186D1*
X33601Y8100D1*
X33543Y8043D1*
X33486Y8014D1*
X33400D1*
X33342Y8043D1*
X33285Y8100D1*
X32755Y8330D2*
X32813Y8387D1*
X32870Y8416D1*
X32956D1*
X33014Y8387D1*
X33071Y8330D1*
X33100Y8243D1*
Y8186D1*
X33071Y8100D1*
X33014Y8043D1*
X32956Y8014D1*
X32870D1*
X32813Y8043D1*
X32755Y8100D1*
X32483Y8617D2*
Y8129D1*
X32455Y8043D1*
X32397Y8014D1*
X32340D1*
X32570Y8416D2*
X32369D1*
X31839Y8330D2*
X31868Y8387D1*
X31954Y8416D1*
X32040D1*
X32126Y8387D1*
X32155Y8330D1*
X32126Y8273D1*
X32069Y8243D1*
X31925Y8215D1*
X31868Y8186D1*
X31839Y8129D1*
Y8100D1*
X31868Y8043D1*
X31954Y8014D1*
X32040D1*
X32126Y8043D1*
X32155Y8100D1*
X31625Y8072D2*
X31654Y8043D1*
X31625Y8014D1*
X31596Y8043D1*
X31625Y8072D1*
X31066Y8330D2*
X31124Y8387D1*
X31181Y8416D1*
X31267D1*
X31325Y8387D1*
X31382Y8330D1*
X31411Y8243D1*
Y8186D1*
X31382Y8100D1*
X31325Y8043D1*
X31267Y8014D1*
X31181D1*
X31124Y8043D1*
X31066Y8100D1*
X30738Y8416D2*
X30795Y8387D1*
X30852Y8330D1*
X30881Y8243D1*
Y8186D1*
X30852Y8100D1*
X30795Y8043D1*
X30738Y8014D1*
X30651D1*
X30594Y8043D1*
X30537Y8100D1*
X30507Y8186D1*
Y8243D1*
X30537Y8330D1*
X30594Y8387D1*
X30651Y8416D1*
X30738D1*
X30322D2*
Y8014D1*
Y8301D2*
X30236Y8387D1*
X30178Y8416D1*
X30093D1*
X30035Y8387D1*
X30006Y8301D1*
Y8014D1*
Y8301D2*
X29920Y8387D1*
X29862Y8416D1*
X29777D1*
X29719Y8387D1*
X29690Y8301D1*
Y8014D1*
X40183Y7412D2*
X39953Y6809D1*
X39724Y7412D1*
X39539Y7039D2*
X39194D1*
Y7096D1*
X39223Y7154D1*
X39251Y7183D1*
X39309Y7211D1*
X39395D1*
X39452Y7183D1*
X39510Y7125D1*
X39539Y7039D1*
Y6982D1*
X39510Y6895D1*
X39452Y6838D1*
X39395Y6809D1*
X39309D1*
X39251Y6838D1*
X39194Y6895D1*
X39009Y7211D2*
Y6809D1*
Y7039D2*
X38980Y7125D1*
X38923Y7183D1*
X38865Y7211D1*
X38779D1*
X38010Y7297D2*
X37953Y7326D1*
X37867Y7411D1*
Y6809D1*
X37653Y6867D2*
X37681Y6838D1*
X37653Y6809D1*
X37624Y6838D1*
X37653Y6867D1*
X37438Y7297D2*
X37381Y7326D1*
X37294Y7411D1*
Y6809D1*
M02*
