M48
INCH
T01C0.0191
T02C0.0354
T03C0.038
T04C0.1181
%
T01
X+019531Y+005437
X+019900Y+004915
X+020900Y+005437
X+023532Y+005437
X+022437Y+008287
X+022437Y+008900
X+020267Y+008023
X+017900Y+007767
X+016437Y+007767
X+015900Y+008757
X+017437Y+010804
X+018450Y+010804
X+020156Y+011437
X+011863Y+012215
X+013265Y+005847
X+032201Y+010287
X+032680Y+010654
X+033359Y+008900
T02
X+024937Y+007437
X+024937Y+008437
X+024937Y+009437
X+023437Y+009937
X+022437Y+009937
X+021437Y+009937
X+020437Y+009937
X+019437Y+009937
X+018437Y+009937
X+017437Y+009937
X+016437Y+009937
X+015437Y+009937
X+014437Y+009937
X+013437Y+009937
X+012437Y+009937
X+013898Y+011437
X+014898Y+011437
X+015898Y+011437
X+016898Y+011437
X+017898Y+011437
X+018898Y+011437
X+018437Y+006937
X+019437Y+006937
X+020437Y+006937
X+021437Y+006937
X+022437Y+006937
X+023437Y+006937
X+018898Y+005437
X+017898Y+005437
X+016898Y+005437
X+015898Y+005437
X+014898Y+005437
X+013898Y+005437
X+013437Y+006937
X+014437Y+006937
X+015437Y+006937
X+016437Y+006937
X+017437Y+006937
X+012437Y+006937
X+005687Y+007437
X+005687Y+008437
X+005687Y+009437
X+005687Y+010437
X+005687Y+006437
X+033726Y+005437
X+034726Y+005437
X+035726Y+005437
X+036726Y+005437
X+037726Y+005437
X+038726Y+005437
X+038726Y+011437
X+037726Y+011437
X+036726Y+011437
X+035726Y+011437
X+034726Y+011437
X+033726Y+011437
T03
X+024937Y+011437
X+020937Y+011437
T04
X+004937Y+011937
X+004937Y+004937
X+047437Y+004937
X+047437Y+011937
T00
M30
