G04 DipTrace 2.4.0.2*
%IN7seg2x4.bottomlayer.ger*%
%MOIN*%
%ADD13C,0.0177*%
%ADD14C,0.0236*%
%ADD16C,0.063*%
%ADD17R,0.063X0.063*%
%ADD18R,0.0748X0.0748*%
%ADD19C,0.0748*%
%ADD20R,0.1181X0.0984*%
%ADD21C,0.0591*%
%ADD22C,0.06*%
%ADD23C,0.06*%
%ADD24R,0.0591X0.0591*%
%ADD25C,0.0591*%
%ADD26R,0.0709X0.0709*%
%ADD27C,0.0709*%
%ADD28C,0.04*%
%FSLAX44Y44*%
G04*
G70*
G90*
G75*
G01*
%LNBottom*%
%LPD*%
X15898Y5437D2*
D13*
X16419Y4915D1*
X19531D1*
Y4548D1*
X34837D1*
X35726Y5437D1*
X19531D2*
Y4915D1*
X20900Y5437D2*
Y9400D1*
X21437Y9937D1*
X17898Y5437D2*
X16900Y6435D1*
Y9474D1*
X16437Y9937D1*
X32680Y10654D2*
X34943D1*
X35726Y11437D1*
X11863Y12215D2*
X23644D1*
X23900Y11959D1*
Y5804D1*
X23532Y5437D1*
X22156D1*
X21900Y5693D1*
Y10144D1*
X21644Y10400D1*
X20900D1*
X20437Y9937D1*
X33359Y8900D2*
X34726Y7532D1*
Y5437D1*
X22437Y9937D2*
Y8900D1*
X15900Y8757D2*
Y6439D1*
X14898Y5437D1*
X22437Y8900D2*
Y8287D1*
X19900Y4915D2*
Y8159D1*
X19437Y8621D1*
Y9937D1*
X18898Y11437D2*
X20156D1*
X32201Y10287D2*
X37576D1*
X38726Y11437D1*
X17437Y10804D2*
Y9937D1*
X18450Y10804D2*
X20304D1*
X20937Y11437D1*
X14898D2*
Y10911D1*
X14642Y10656D1*
X14156D1*
X13437Y9937D1*
X14437Y6937D2*
X14900Y7400D1*
Y10144D1*
X15156Y10400D1*
X15860D1*
X16898Y11437D1*
X19437Y6937D2*
X17900Y8474D1*
Y10399D1*
X17898Y10401D1*
Y11437D1*
X17900Y7767D2*
Y6435D1*
X18898Y5437D1*
X16437Y7767D2*
Y6937D1*
X13265Y5847D2*
X12854Y5437D1*
X9937D1*
X18437Y9937D2*
X18900Y10400D1*
X19644D1*
X19900Y10144D1*
Y9149D1*
X20267Y8782D1*
Y8023D1*
X24937Y7437D2*
Y8437D1*
X9937Y5437D2*
X7400D1*
X6400Y6437D1*
X5687D1*
X24937Y8437D2*
X25675Y9175D1*
Y10699D1*
X24937Y11437D1*
X20437Y6937D2*
Y5326D1*
X20693Y5070D1*
X23900D1*
X24156Y5326D1*
Y8656D1*
X24937Y9437D1*
X15437Y6937D2*
X14715Y6215D1*
X9937D1*
Y6937D1*
X7662D1*
X7162Y7437D1*
X5687D1*
Y8437D2*
X9937D1*
X10937D1*
X12437Y6937D1*
Y9937D2*
X9937D1*
X8051D1*
X7551Y9437D1*
X5687D1*
Y10437D2*
X6789D1*
X7789Y11437D1*
X9937D1*
X12859D1*
X13381Y11959D1*
X22644D1*
X22900Y11703D1*
Y7474D1*
X23437Y6937D1*
D28*
X19531Y5437D3*
X20900D3*
X32680Y10654D3*
X11863Y12215D3*
X23532Y5437D3*
X33359Y8900D3*
X22437Y8287D3*
X15900Y8757D3*
X22437Y8900D3*
X19900Y4915D3*
X20156Y11437D3*
X32201Y10287D3*
X17437Y10804D3*
X18450D3*
X17900Y7767D3*
X16437D3*
X13265Y5847D3*
X20267Y8023D3*
X5780Y12324D2*
D14*
X11395D1*
X24046D2*
X46595D1*
X5854Y12089D2*
X9066D1*
X10807D2*
X11398D1*
X24242D2*
X46521D1*
X5865Y11854D2*
X9066D1*
X10807D2*
X11557D1*
X12169D2*
X12764D1*
X23234D2*
X23490D1*
X24268D2*
X24545D1*
X25331D2*
X33256D1*
X39198D2*
X46510D1*
X5809Y11619D2*
X7460D1*
X23268D2*
X23530D1*
X24268D2*
X24387D1*
X25486D2*
X33119D1*
X39334D2*
X46566D1*
X5680Y11385D2*
X7224D1*
X21514D2*
X22530D1*
X23268D2*
X23530D1*
X24268D2*
X24358D1*
X25515D2*
X33094D1*
X39360D2*
X46695D1*
X4339Y11150D2*
X4463D1*
X5411D2*
X6988D1*
X13077D2*
X13332D1*
X21437D2*
X22530D1*
X23268D2*
X23530D1*
X24268D2*
X24435D1*
X25737D2*
X33164D1*
X39290D2*
X46964D1*
X47908D2*
X48035D1*
X4339Y10915D2*
X5031D1*
X6341D2*
X6755D1*
X7780D2*
X9066D1*
X10807D2*
X13557D1*
X15266D2*
X15554D1*
X21156D2*
X22530D1*
X23268D2*
X23530D1*
X24268D2*
X24719D1*
X25969D2*
X32282D1*
X36068D2*
X36386D1*
X37068D2*
X37386D1*
X39069D2*
X48035D1*
X4339Y10680D2*
X5031D1*
X7544D2*
X9066D1*
X10807D2*
X13668D1*
X16653D2*
X16972D1*
X21869D2*
X22530D1*
X23268D2*
X23530D1*
X24268D2*
X25180D1*
X26043D2*
X31942D1*
X35481D2*
X37456D1*
X38482D2*
X48035D1*
X4339Y10445D2*
X5031D1*
X7308D2*
X9066D1*
X10807D2*
X12195D1*
X12678D2*
X13196D1*
X16679D2*
X17068D1*
X20112D2*
X20196D1*
X22112D2*
X22197D1*
X24268D2*
X25306D1*
X26043D2*
X31746D1*
X38245D2*
X48035D1*
X4339Y10210D2*
X5031D1*
X7075D2*
X7814D1*
X24268D2*
X25306D1*
X26043D2*
X31728D1*
X38013D2*
X48035D1*
X4339Y9975D2*
X5031D1*
X6341D2*
X7574D1*
X24268D2*
X24340D1*
X26043D2*
X31842D1*
X37751D2*
X48035D1*
X4339Y9740D2*
X5109D1*
X24268D2*
X24340D1*
X26043D2*
X48035D1*
X4339Y9505D2*
X5035D1*
X8131D2*
X9066D1*
X10807D2*
X12070D1*
X12804D2*
X13070D1*
X13804D2*
X14067D1*
X15805D2*
X16067D1*
X18805D2*
X19068D1*
X24268D2*
X24340D1*
X26043D2*
X48035D1*
X4339Y9270D2*
X5054D1*
X7898D2*
X9066D1*
X10807D2*
X14532D1*
X15269D2*
X16529D1*
X17270D2*
X17529D1*
X18270D2*
X19068D1*
X20293D2*
X20530D1*
X21282D2*
X21530D1*
X23268D2*
X23530D1*
X26043D2*
X33068D1*
X33650D2*
X48035D1*
X4339Y9035D2*
X5175D1*
X6197D2*
X9066D1*
X10807D2*
X14532D1*
X15269D2*
X15514D1*
X16288D2*
X16529D1*
X17270D2*
X17529D1*
X18270D2*
X19068D1*
X21271D2*
X21530D1*
X23268D2*
X23530D1*
X26014D2*
X32898D1*
X33820D2*
X48035D1*
X4339Y8801D2*
X5146D1*
X6227D2*
X9066D1*
X10807D2*
X14532D1*
X15269D2*
X15421D1*
X16380D2*
X16529D1*
X17270D2*
X17529D1*
X18270D2*
X19068D1*
X21271D2*
X21530D1*
X23268D2*
X23530D1*
X25814D2*
X32891D1*
X33971D2*
X48035D1*
X4339Y8566D2*
X5046D1*
X11320D2*
X14532D1*
X15269D2*
X15462D1*
X16340D2*
X16529D1*
X17270D2*
X17529D1*
X18322D2*
X19072D1*
X21271D2*
X21530D1*
X23268D2*
X23530D1*
X25578D2*
X33023D1*
X34208D2*
X48035D1*
X4339Y8331D2*
X5042D1*
X11556D2*
X14532D1*
X15269D2*
X15528D1*
X16270D2*
X16529D1*
X17270D2*
X17562D1*
X18558D2*
X19216D1*
X21271D2*
X21530D1*
X23268D2*
X23530D1*
X25504D2*
X33415D1*
X34440D2*
X48035D1*
X4339Y8096D2*
X5131D1*
X11792D2*
X14532D1*
X15269D2*
X15528D1*
X17270D2*
X17558D1*
X18790D2*
X19448D1*
X21271D2*
X21530D1*
X23268D2*
X23530D1*
X25394D2*
X33651D1*
X34676D2*
X48035D1*
X4339Y7861D2*
X5194D1*
X6179D2*
X9066D1*
X10807D2*
X11000D1*
X12025D2*
X14532D1*
X15269D2*
X15528D1*
X17270D2*
X17429D1*
X19027D2*
X19529D1*
X21271D2*
X21530D1*
X23268D2*
X23530D1*
X25346D2*
X33883D1*
X34909D2*
X48035D1*
X4339Y7626D2*
X5061D1*
X7485D2*
X9066D1*
X10807D2*
X11236D1*
X12261D2*
X14532D1*
X15269D2*
X15528D1*
X17270D2*
X17440D1*
X19259D2*
X19529D1*
X21271D2*
X21530D1*
X22267D2*
X22530D1*
X23268D2*
X23530D1*
X25501D2*
X34120D1*
X35082D2*
X48035D1*
X4339Y7391D2*
X5035D1*
X7721D2*
X9066D1*
X10807D2*
X11468D1*
X12774D2*
X13100D1*
X13774D2*
X14100D1*
X25530D2*
X34356D1*
X35097D2*
X48035D1*
X4339Y7156D2*
X5098D1*
X10807D2*
X11705D1*
X25460D2*
X34356D1*
X35097D2*
X48035D1*
X4339Y6921D2*
X5257D1*
X6116D2*
X7165D1*
X10807D2*
X11860D1*
X24526D2*
X24664D1*
X25209D2*
X34356D1*
X35097D2*
X48035D1*
X4339Y6686D2*
X5083D1*
X6662D2*
X7401D1*
X10807D2*
X11922D1*
X24526D2*
X34356D1*
X35097D2*
X48035D1*
X4339Y6451D2*
X5031D1*
X6898D2*
X9066D1*
X18724D2*
X19149D1*
X22725D2*
X22862D1*
X24526D2*
X34356D1*
X35097D2*
X48035D1*
X4339Y6217D2*
X5072D1*
X7134D2*
X9066D1*
X16188D2*
X16606D1*
X18632D2*
X19529D1*
X21271D2*
X21530D1*
X22267D2*
X23530D1*
X24526D2*
X34356D1*
X35097D2*
X48035D1*
X4339Y5982D2*
X5227D1*
X6149D2*
X6342D1*
X7367D2*
X9066D1*
X16199D2*
X16595D1*
X19200D2*
X19529D1*
X21271D2*
X21530D1*
X22267D2*
X23530D1*
X24526D2*
X33090D1*
X35097D2*
X35423D1*
X36027D2*
X36423D1*
X37027D2*
X37423D1*
X38028D2*
X38423D1*
X39028D2*
X48035D1*
X4339Y5747D2*
X4504D1*
X5370D2*
X6578D1*
X21271D2*
X21530D1*
X24526D2*
X33090D1*
X39279D2*
X47005D1*
X47868D2*
X48035D1*
X5662Y5512D2*
X6814D1*
X21374D2*
X21582D1*
X24526D2*
X33090D1*
X39356D2*
X46713D1*
X5802Y5277D2*
X7047D1*
X24523D2*
X33090D1*
X39342D2*
X46573D1*
X5861Y5042D2*
X9066D1*
X10807D2*
X13262D1*
X24386D2*
X33090D1*
X39216D2*
X46514D1*
X5857Y4807D2*
X9066D1*
X10807D2*
X16016D1*
X35610D2*
X46518D1*
X5791Y4572D2*
X16352D1*
X35374D2*
X46584D1*
X5640Y4337D2*
X19234D1*
X35138D2*
X46732D1*
X25497Y7320D2*
X25461Y7207D1*
X25403Y7105D1*
X25325Y7016D1*
X25231Y6946D1*
X25124Y6896D1*
X25009Y6869D1*
X24891Y6866D1*
X24775Y6888D1*
X24666Y6933D1*
X24569Y6999D1*
X24500Y7070D1*
X24502Y5326D1*
X24482Y5210D1*
X24417Y5099D1*
X24215Y4896D1*
X29570Y4894D1*
X33117D1*
X33115Y6006D1*
Y6049D1*
X34338D1*
Y5912D1*
X34380Y5939D1*
Y7390D1*
X33325Y8444D1*
X33252Y8455D1*
X33142Y8497D1*
X33046Y8566D1*
X32971Y8657D1*
X32922Y8764D1*
X32902Y8880D1*
X32912Y8997D1*
X32952Y9108D1*
X33018Y9205D1*
X33108Y9282D1*
X33214Y9333D1*
X33329Y9356D1*
X33447Y9349D1*
X33559Y9311D1*
X33657Y9247D1*
X33736Y9159D1*
X33790Y9054D1*
X33815Y8933D1*
X34971Y7777D1*
X35039Y7681D1*
X35072Y7556D1*
Y5941D1*
X35200Y5824D1*
X35227Y5784D1*
X35266Y5840D1*
X35352Y5921D1*
X35452Y5984D1*
X35562Y6026D1*
X35678Y6047D1*
X35796Y6045D1*
X35911Y6020D1*
X36020Y5974D1*
X36117Y5908D1*
X36200Y5824D1*
X36227Y5784D1*
X36266Y5840D1*
X36352Y5921D1*
X36452Y5984D1*
X36562Y6026D1*
X36678Y6047D1*
X36796Y6045D1*
X36911Y6020D1*
X37020Y5974D1*
X37117Y5908D1*
X37200Y5824D1*
X37227Y5784D1*
X37266Y5840D1*
X37352Y5921D1*
X37452Y5984D1*
X37562Y6026D1*
X37678Y6047D1*
X37796Y6045D1*
X37911Y6020D1*
X38020Y5974D1*
X38117Y5908D1*
X38200Y5824D1*
X38227Y5784D1*
X38266Y5840D1*
X38352Y5921D1*
X38452Y5984D1*
X38562Y6026D1*
X38678Y6047D1*
X38796Y6045D1*
X38911Y6020D1*
X39020Y5974D1*
X39117Y5908D1*
X39200Y5824D1*
X39266Y5726D1*
X39311Y5617D1*
X39335Y5501D1*
X39338Y5437D1*
X39327Y5320D1*
X39293Y5207D1*
X39238Y5102D1*
X39165Y5010D1*
X39075Y4934D1*
X38972Y4877D1*
X38860Y4840D1*
X38743Y4825D1*
X38625Y4834D1*
X38511Y4864D1*
X38405Y4916D1*
X38311Y4988D1*
X38227Y5085D1*
X38165Y5010D1*
X38075Y4934D1*
X37972Y4877D1*
X37860Y4840D1*
X37743Y4825D1*
X37625Y4834D1*
X37511Y4864D1*
X37405Y4916D1*
X37311Y4988D1*
X37227Y5085D1*
X37165Y5010D1*
X37075Y4934D1*
X36972Y4877D1*
X36860Y4840D1*
X36743Y4825D1*
X36625Y4834D1*
X36511Y4864D1*
X36405Y4916D1*
X36311Y4988D1*
X36227Y5085D1*
X36165Y5010D1*
X36075Y4934D1*
X35972Y4877D1*
X35860Y4840D1*
X35743Y4825D1*
X35614Y4837D1*
X35094Y4315D1*
X46779D1*
X46724Y4376D1*
X46658Y4473D1*
X46604Y4579D1*
X46565Y4690D1*
X46540Y4805D1*
X46530Y4923D1*
X46536Y5041D1*
X46557Y5157D1*
X46593Y5269D1*
X46644Y5376D1*
X46707Y5475D1*
X46783Y5566D1*
X46871Y5645D1*
X46967Y5713D1*
X47072Y5767D1*
X47183Y5808D1*
X47298Y5833D1*
X47416Y5844D1*
X47534Y5839D1*
X47650Y5818D1*
X47763Y5783D1*
X47870Y5734D1*
X47970Y5671D1*
X48058Y5598D1*
X48059Y9512D1*
Y11280D1*
X47992Y11220D1*
X47895Y11154D1*
X47789Y11101D1*
X47677Y11063D1*
X47562Y11039D1*
X47444Y11030D1*
X47326Y11037D1*
X47210Y11059D1*
X47098Y11096D1*
X46992Y11147D1*
X46893Y11211D1*
X46803Y11288D1*
X46724Y11376D1*
X46658Y11473D1*
X46604Y11579D1*
X46565Y11690D1*
X46540Y11805D1*
X46530Y11923D1*
X46536Y12041D1*
X46557Y12157D1*
X46593Y12269D1*
X46644Y12376D1*
X46707Y12475D1*
X46776Y12557D1*
X45343Y12559D1*
X23673D1*
X23760Y12541D1*
X23871Y12476D1*
X24144Y12203D1*
X24212Y12107D1*
X24245Y11983D1*
X24246Y9238D1*
X24362Y9352D1*
X24365Y10009D1*
X25328D1*
X25329Y10559D1*
X25000Y10885D1*
X24868Y10884D1*
X24753Y10911D1*
X24647Y10961D1*
X24553Y11033D1*
X24477Y11123D1*
X24421Y11226D1*
X24388Y11340D1*
X24380Y11457D1*
X24397Y11574D1*
X24438Y11685D1*
X24501Y11784D1*
X24583Y11868D1*
X24682Y11933D1*
X24792Y11975D1*
X24908Y11994D1*
X25026Y11987D1*
X25140Y11956D1*
X25244Y11902D1*
X25335Y11827D1*
X25408Y11734D1*
X25461Y11629D1*
X25489Y11514D1*
X25494Y11437D1*
X25488Y11375D1*
X25920Y10944D1*
X25988Y10848D1*
X26020Y10723D1*
X26021Y9175D1*
X26001Y9059D1*
X25936Y8948D1*
X25484Y8495D1*
X25490Y8437D1*
X25477Y8320D1*
X25440Y8208D1*
X25380Y8106D1*
X25285Y8009D1*
X25284Y7892D1*
X25370Y7811D1*
X25438Y7714D1*
X25484Y7606D1*
X25509Y7437D1*
X25497Y7320D1*
X5199Y11069D2*
X6319D1*
Y10784D1*
X6643Y10783D1*
X7544Y11682D1*
X7640Y11750D1*
X7765Y11782D1*
X9092Y11783D1*
X9089Y12187D1*
X10785D1*
Y11784D1*
X11712Y11783D1*
X11646Y11812D1*
X11550Y11881D1*
X11475Y11972D1*
X11426Y12079D1*
X11406Y12195D1*
X11416Y12312D1*
X11456Y12423D1*
X11522Y12520D1*
X11570Y12561D1*
X6366Y12559D1*
X5595D1*
X5709Y12413D1*
X5764Y12309D1*
X5805Y12198D1*
X5832Y12083D1*
X5844Y11937D1*
X5836Y11819D1*
X5813Y11703D1*
X5775Y11592D1*
X5724Y11486D1*
X5658Y11387D1*
X5581Y11298D1*
X5492Y11220D1*
X5395Y11154D1*
X5289Y11101D1*
X5195Y11069D1*
X5056Y10987D1*
Y11040D1*
X4944Y11030D1*
X4826Y11037D1*
X4710Y11059D1*
X4598Y11096D1*
X4492Y11147D1*
X4393Y11211D1*
X4317Y11276D1*
X4315Y10433D1*
Y5594D1*
X4371Y5645D1*
X4467Y5713D1*
X4572Y5767D1*
X4683Y5808D1*
X4798Y5833D1*
X4916Y5844D1*
X5034Y5839D1*
X5150Y5818D1*
X5263Y5783D1*
X5370Y5734D1*
X5470Y5671D1*
X5560Y5596D1*
X5641Y5509D1*
X5709Y5413D1*
X5764Y5309D1*
X5805Y5198D1*
X5832Y5083D1*
X5844Y4937D1*
X5836Y4819D1*
X5813Y4703D1*
X5775Y4592D1*
X5724Y4486D1*
X5658Y4387D1*
X5593Y4312D1*
X6205Y4315D1*
X19274D1*
X19235Y4368D1*
X19192Y4481D1*
X19185Y4566D1*
X18704Y4569D1*
X16419D1*
X16303Y4589D1*
X16192Y4654D1*
X16010Y4835D1*
X15914Y4825D1*
X15796Y4834D1*
X15682Y4864D1*
X15576Y4916D1*
X15482Y4988D1*
X15398Y5085D1*
X15336Y5010D1*
X15246Y4934D1*
X15143Y4877D1*
X15031Y4840D1*
X14914Y4825D1*
X14796Y4834D1*
X14682Y4864D1*
X14576Y4916D1*
X14509Y4968D1*
Y4825D1*
X13286D1*
Y5383D1*
X13099Y5192D1*
X13003Y5125D1*
X12879Y5092D1*
X10784Y5091D1*
X10785Y4687D1*
X9089D1*
Y5090D1*
X7400Y5091D1*
X7284Y5111D1*
X7173Y5176D1*
X6255Y6093D1*
X6062Y5929D1*
X5961Y5868D1*
X5850Y5827D1*
X5734Y5807D1*
X5616Y5810D1*
X5501Y5834D1*
X5392Y5879D1*
X5293Y5943D1*
X5208Y6025D1*
X5140Y6122D1*
X5091Y6229D1*
X5063Y6343D1*
X5056Y6461D1*
X5071Y6578D1*
X5108Y6690D1*
X5165Y6793D1*
X5241Y6884D1*
X5306Y6938D1*
X5208Y7025D1*
X5140Y7122D1*
X5091Y7229D1*
X5063Y7343D1*
X5056Y7461D1*
X5071Y7578D1*
X5108Y7690D1*
X5165Y7793D1*
X5241Y7884D1*
X5306Y7938D1*
X5208Y8025D1*
X5140Y8122D1*
X5091Y8229D1*
X5063Y8343D1*
X5056Y8461D1*
X5071Y8578D1*
X5108Y8690D1*
X5165Y8793D1*
X5241Y8884D1*
X5306Y8938D1*
X5208Y9025D1*
X5140Y9122D1*
X5091Y9229D1*
X5063Y9343D1*
X5056Y9461D1*
X5071Y9578D1*
X5108Y9690D1*
X5177Y9807D1*
X5056Y9806D1*
Y10987D1*
X6319Y10090D2*
Y9806D1*
X6197D1*
X6278Y9783D1*
X7411D1*
X7806Y10182D1*
X7902Y10250D1*
X8026Y10282D1*
X9088Y10283D1*
X9089Y10687D1*
X10785D1*
Y10284D1*
X12008Y10283D1*
X12101Y10376D1*
X12202Y10437D1*
X12314Y10476D1*
X12431Y10490D1*
X12548Y10479D1*
X12660Y10443D1*
X12762Y10384D1*
X12850Y10305D1*
X12918Y10209D1*
X12934Y10172D1*
X13016Y10295D1*
X13101Y10376D1*
X13202Y10437D1*
X13314Y10476D1*
X13431Y10490D1*
X13493Y10484D1*
X13837Y10826D1*
X13682Y10864D1*
X13576Y10916D1*
X13482Y10988D1*
X13404Y11076D1*
X13344Y11177D1*
X13304Y11288D1*
X13291Y11379D1*
X13104Y11192D1*
X13008Y11125D1*
X12883Y11092D1*
X10781Y11091D1*
X10785Y10687D1*
X9089D1*
Y11090D1*
X7933Y11091D1*
X7034Y10192D1*
X6938Y10125D1*
X6813Y10092D1*
X6320Y10091D1*
X6215Y9092D2*
X6150Y9007D1*
X6070Y8936D1*
X6181Y8830D1*
X6211Y8784D1*
X9086Y8783D1*
X9089Y9187D1*
X10785D1*
Y8784D1*
X10937Y8783D1*
X11053Y8763D1*
X11164Y8698D1*
X12380Y7484D1*
X12431Y7490D1*
X12548Y7479D1*
X12660Y7443D1*
X12762Y7384D1*
X12850Y7305D1*
X12918Y7209D1*
X12934Y7172D1*
X13016Y7295D1*
X13101Y7376D1*
X13202Y7437D1*
X13314Y7476D1*
X13431Y7490D1*
X13548Y7479D1*
X13660Y7443D1*
X13762Y7384D1*
X13850Y7305D1*
X13918Y7209D1*
X13934Y7172D1*
X14016Y7295D1*
X14101Y7376D1*
X14202Y7437D1*
X14314Y7476D1*
X14431Y7490D1*
X14493Y7484D1*
X14555Y7544D1*
X14554Y9396D1*
X14478Y9386D1*
X14361Y9390D1*
X14246Y9418D1*
X14141Y9470D1*
X14048Y9544D1*
X13974Y9635D1*
X13939Y9704D1*
X13880Y9606D1*
X13800Y9520D1*
X13703Y9453D1*
X13594Y9407D1*
X13478Y9386D1*
X13361Y9390D1*
X13246Y9418D1*
X13141Y9470D1*
X13048Y9544D1*
X12974Y9635D1*
X12939Y9704D1*
X12880Y9606D1*
X12800Y9520D1*
X12703Y9453D1*
X12594Y9407D1*
X12478Y9386D1*
X12361Y9390D1*
X12246Y9418D1*
X12141Y9470D1*
X12048Y9544D1*
X12009Y9592D1*
X10787Y9591D1*
X10785Y9187D1*
X9089D1*
Y9590D1*
X8191Y9591D1*
X7795Y9192D1*
X7699Y9125D1*
X7575Y9092D1*
X6218Y9091D1*
X6215Y8092D2*
X6150Y8007D1*
X6070Y7936D1*
X6181Y7830D1*
X6211Y7784D1*
X7162Y7783D1*
X7278Y7763D1*
X7389Y7698D1*
X7806Y7282D1*
X9090Y7283D1*
X9089Y7687D1*
X10785D1*
Y6561D1*
X12030D1*
X11974Y6635D1*
X11920Y6740D1*
X11890Y6854D1*
Y6998D1*
X10796Y8089D1*
X10785Y8006D1*
Y7687D1*
X9089D1*
Y8090D1*
X6213Y8091D1*
X6215Y7092D2*
X6150Y7007D1*
X6070Y6936D1*
X6181Y6830D1*
X6211Y6784D1*
X6400Y6783D1*
X6516Y6763D1*
X6627Y6698D1*
X7545Y5781D1*
X9087Y5783D1*
X9089Y6187D1*
X9131D1*
X9089D1*
Y6590D1*
X7662Y6591D1*
X7546Y6611D1*
X7435Y6676D1*
X7018Y7092D1*
X6213Y7091D1*
X10785Y5866D2*
Y5784D1*
X10817Y5869D1*
X10784D1*
X10882Y5783D1*
X12709D1*
X12707Y5869D1*
X10817D1*
X21482Y11320D2*
X21445Y11208D1*
X21386Y11106D1*
X21306Y11019D1*
X21210Y10951D1*
X21102Y10904D1*
X20986Y10882D1*
X20872Y10884D1*
X20549Y10559D1*
X20449Y10490D1*
X20526Y10516D1*
X20655Y10644D1*
X20751Y10712D1*
X20875Y10745D1*
X21644Y10746D1*
X21760Y10726D1*
X21871Y10661D1*
X22136Y10396D1*
X22202Y10437D1*
X22314Y10476D1*
X22431Y10490D1*
X22551Y10477D1*
X22554Y11560D1*
X22407Y11613D1*
X21466D1*
X21489Y11514D1*
X21494Y11437D1*
X21482Y11320D1*
X23375Y7490D2*
X23552D1*
X23554Y9396D1*
X23478Y9386D1*
X23361Y9390D1*
X23243Y9420D1*
X23246Y8278D1*
Y7617D1*
X23371Y7492D1*
X23551Y6384D2*
X22884D1*
X22880Y6606D1*
X22800Y6520D1*
X22703Y6453D1*
X22594Y6407D1*
X22478Y6386D1*
X22361Y6390D1*
X22243Y6420D1*
X22246Y5836D1*
X22392Y5783D1*
X23237D1*
X23281Y5819D1*
X23387Y5871D1*
X23499Y5893D1*
X23551Y5945D1*
X23554Y6384D1*
X22247Y7453D2*
X22314Y7476D1*
X22431Y7490D1*
X22551Y7477D1*
X22554Y7847D1*
X22447Y7829D1*
X22330Y7842D1*
X22244Y7875D1*
X22246Y7453D1*
X21555Y6400D2*
X21478Y6386D1*
X21361Y6390D1*
X21243Y6420D1*
X21246Y5734D1*
X21276Y5697D1*
X21330Y5592D1*
X21357Y5437D1*
X21355Y5419D1*
X21686Y5416D1*
X21587Y5544D1*
X21554Y5669D1*
Y6398D1*
X21247Y7453D2*
X21314Y7476D1*
X21431Y7490D1*
X21551Y7477D1*
X21554Y9395D1*
X21478Y9386D1*
X21379Y9389D1*
X21246Y9256D1*
Y7454D1*
X19555Y6400D2*
X19478Y6386D1*
X19361Y6390D1*
X19246Y6418D1*
X19141Y6470D1*
X19048Y6544D1*
X18974Y6635D1*
X18939Y6704D1*
X18880Y6606D1*
X18800Y6520D1*
X18703Y6453D1*
X18594Y6407D1*
X18478Y6386D1*
X18438Y6387D1*
X18784Y6040D1*
X18967Y6045D1*
X19082Y6020D1*
X19191Y5974D1*
X19288Y5908D1*
X19343Y5853D1*
X19385Y5871D1*
X19501Y5894D1*
X19556Y5890D1*
X19554Y6395D1*
X19383Y7484D2*
X19431Y7490D1*
X19551Y7477D1*
X19554Y8012D1*
X19192Y8377D1*
X19125Y8473D1*
X19092Y8597D1*
X19091Y9504D1*
X18974Y9635D1*
X18939Y9704D1*
X18880Y9606D1*
X18800Y9520D1*
X18703Y9453D1*
X18594Y9407D1*
X18478Y9386D1*
X18361Y9390D1*
X18243Y9420D1*
X18246Y8616D1*
X19379Y7485D1*
X17247Y7453D2*
X17314Y7476D1*
X17431Y7490D1*
X17544Y7479D1*
X17512Y7524D1*
X17463Y7631D1*
X17443Y7747D1*
X17453Y7864D1*
X17492Y7975D1*
X17559Y8072D1*
X17648Y8149D1*
X17705Y8177D1*
X17655Y8230D1*
X17587Y8326D1*
X17554Y8450D1*
Y9393D1*
X17478Y9386D1*
X17361Y9390D1*
X17243Y9420D1*
X17246Y8411D1*
Y7455D1*
X16555Y6400D2*
X16478Y6386D1*
X16361Y6390D1*
X16243Y6420D1*
X16226Y6323D1*
X16161Y6212D1*
X15990Y6040D1*
X16082Y6020D1*
X16191Y5974D1*
X16288Y5908D1*
X16372Y5824D1*
X16398Y5784D1*
X16437Y5840D1*
X16523Y5921D1*
X16623Y5984D1*
X16733Y6026D1*
X16809Y6040D1*
X16655Y6190D1*
X16582Y6300D1*
X15247Y7453D2*
X15314Y7476D1*
X15431Y7490D1*
X15551Y7477D1*
X15554Y8458D1*
X15512Y8515D1*
X15463Y8622D1*
X15443Y8738D1*
X15453Y8855D1*
X15492Y8966D1*
X15559Y9063D1*
X15648Y9140D1*
X15754Y9191D1*
X15870Y9214D1*
X15987Y9206D1*
X16099Y9169D1*
X16198Y9105D1*
X16276Y9017D1*
X16330Y8912D1*
X16357Y8757D1*
X16342Y8641D1*
X16297Y8532D1*
X16247Y8464D1*
X16246Y8185D1*
X16407Y8223D1*
X16525Y8216D1*
X16556Y8205D1*
X16554Y9332D1*
X16478Y9386D1*
X16361Y9390D1*
X16246Y9418D1*
X16141Y9470D1*
X16048Y9544D1*
X15974Y9635D1*
X15939Y9704D1*
X15880Y9606D1*
X15800Y9520D1*
X15703Y9453D1*
X15594Y9407D1*
X15478Y9386D1*
X15361Y9390D1*
X15243Y9420D1*
X15246Y8018D1*
Y7453D1*
X16442Y10489D2*
X16548Y10479D1*
X16660Y10443D1*
X16762Y10384D1*
X16850Y10305D1*
X16918Y10209D1*
X16934Y10172D1*
X17016Y10295D1*
X17093Y10369D1*
X17091Y10502D1*
X17049Y10561D1*
X17000Y10668D1*
X16980Y10784D1*
X16984Y10832D1*
X16914Y10825D1*
X16785Y10837D1*
X16440Y10490D1*
X20555Y9400D2*
X20478Y9386D1*
X20361Y9390D1*
X20243Y9420D1*
X20246Y9291D1*
X20554Y8980D1*
Y9398D1*
X23247Y10453D2*
X23314Y10476D1*
X23431Y10490D1*
X23551Y10477D1*
X23554Y11817D1*
X23407Y11869D1*
X23204D1*
X23245Y11727D1*
X23246Y10459D1*
X15807Y10833D2*
X15682Y10864D1*
X15576Y10916D1*
X15482Y10988D1*
X15398Y11085D1*
X15336Y11010D1*
X15243Y10932D1*
X15222Y10792D1*
X15218Y10782D1*
X15274Y10746D1*
X15720D1*
X15806Y10835D1*
X39327Y11320D2*
X39293Y11207D1*
X39238Y11102D1*
X39165Y11010D1*
X39075Y10934D1*
X38972Y10877D1*
X38860Y10840D1*
X38743Y10825D1*
X38614Y10837D1*
X37821Y10042D1*
X37725Y9974D1*
X37600Y9941D1*
X32501D1*
X32435Y9894D1*
X32327Y9847D1*
X32211Y9829D1*
X32094Y9842D1*
X31984Y9884D1*
X31888Y9953D1*
X31813Y10044D1*
X31764Y10151D1*
X31744Y10267D1*
X31754Y10384D1*
X31794Y10495D1*
X31860Y10592D1*
X31950Y10669D1*
X32055Y10720D1*
X32171Y10743D1*
X32233Y10739D1*
X32272Y10862D1*
X32339Y10959D1*
X32428Y11036D1*
X32534Y11088D1*
X32650Y11110D1*
X32767Y11103D1*
X32879Y11066D1*
X32980Y10998D1*
X33296Y11000D1*
X33233Y11076D1*
X33173Y11177D1*
X33133Y11288D1*
X33115Y11405D1*
X33121Y11523D1*
X33148Y11637D1*
X33197Y11744D1*
X33266Y11840D1*
X33352Y11921D1*
X33452Y11984D1*
X33562Y12026D1*
X33678Y12047D1*
X33796Y12045D1*
X33911Y12020D1*
X34020Y11974D1*
X34117Y11908D1*
X34200Y11824D1*
X34227Y11784D1*
X34266Y11840D1*
X34352Y11921D1*
X34452Y11984D1*
X34562Y12026D1*
X34678Y12047D1*
X34796Y12045D1*
X34911Y12020D1*
X35020Y11974D1*
X35117Y11908D1*
X35200Y11824D1*
X35227Y11784D1*
X35266Y11840D1*
X35352Y11921D1*
X35452Y11984D1*
X35562Y12026D1*
X35678Y12047D1*
X35796Y12045D1*
X35911Y12020D1*
X36020Y11974D1*
X36117Y11908D1*
X36200Y11824D1*
X36227Y11784D1*
X36266Y11840D1*
X36352Y11921D1*
X36452Y11984D1*
X36562Y12026D1*
X36678Y12047D1*
X36796Y12045D1*
X36911Y12020D1*
X37020Y11974D1*
X37117Y11908D1*
X37200Y11824D1*
X37227Y11784D1*
X37266Y11840D1*
X37352Y11921D1*
X37452Y11984D1*
X37562Y12026D1*
X37678Y12047D1*
X37796Y12045D1*
X37911Y12020D1*
X38020Y11974D1*
X38117Y11908D1*
X38200Y11824D1*
X38227Y11784D1*
X38266Y11840D1*
X38352Y11921D1*
X38452Y11984D1*
X38562Y12026D1*
X38678Y12047D1*
X38796Y12045D1*
X38911Y12020D1*
X39020Y11974D1*
X39117Y11908D1*
X39200Y11824D1*
X39266Y11726D1*
X39311Y11617D1*
X39335Y11501D1*
X39338Y11437D1*
X39327Y11320D1*
X37636Y10833D2*
X37511Y10864D1*
X37405Y10916D1*
X37311Y10988D1*
X37227Y11085D1*
X37165Y11010D1*
X37075Y10934D1*
X36972Y10877D1*
X36860Y10840D1*
X36743Y10825D1*
X36625Y10834D1*
X36511Y10864D1*
X36405Y10916D1*
X36311Y10988D1*
X36227Y11085D1*
X36165Y11010D1*
X36075Y10934D1*
X35972Y10877D1*
X35860Y10840D1*
X35743Y10825D1*
X35614Y10837D1*
X35410Y10631D1*
X37431Y10633D1*
X37631Y10831D1*
X12158Y11870D2*
X12097Y11822D1*
X12006Y11782D1*
X12716Y11783D1*
X12800Y11867D1*
X12161Y11869D1*
D16*
X24937Y7437D3*
D17*
Y9437D3*
D18*
X5687Y10437D3*
D19*
Y9437D3*
Y8437D3*
Y7437D3*
Y6437D3*
D20*
X9937Y11437D3*
Y9937D3*
Y8437D3*
Y6937D3*
Y5437D3*
D21*
X24937Y8437D3*
D22*
Y11437D3*
D23*
X20937D3*
D24*
X23437Y6937D3*
D25*
X22437D3*
X21437D3*
X20437D3*
X19437D3*
X18437D3*
X17437D3*
X16437D3*
X15437D3*
X14437D3*
X13437D3*
X12437D3*
Y9937D3*
X13437D3*
X14437D3*
X15437D3*
X16437D3*
X17437D3*
X18437D3*
X19437D3*
X20437D3*
X21437D3*
X22437D3*
X23437D3*
D26*
X13898Y5437D3*
D27*
X14898D3*
X15898D3*
X16898D3*
X17898D3*
X18898D3*
Y11437D3*
X17898D3*
X16898D3*
X15898D3*
X14898D3*
X13898D3*
D26*
X33726Y5437D3*
D27*
X34726D3*
X35726D3*
X36726D3*
X37726D3*
X38726D3*
Y11437D3*
X37726D3*
X36726D3*
X35726D3*
X34726D3*
X33726D3*
M02*
