G04 DipTrace 2.4.0.2*
%IN7seg2x4.bottomsilkscreen.ger*%
%MOIN*%
%ADD10C,0.0098*%
%ADD15C,0.0106*%
%ADD56C,0.0077*%
%ADD57C,0.0093*%
%FSLAX44Y44*%
G04*
G70*
G90*
G75*
G01*
%LNBotSilk*%
%LPD*%
X24337Y9636D2*
D10*
Y7238D1*
X25537Y9636D2*
Y7238D1*
G02X24337Y7238I-600J-1D01*
G01*
Y9636D2*
G02X25537Y9636I600J1D01*
G01*
X21939Y10937D2*
X23935D1*
Y11937D2*
Y10937D1*
X21939Y11937D2*
X23935D1*
X21939D2*
Y10937D1*
X24079Y9461D2*
X11795D1*
Y7413D2*
Y9461D1*
X24079Y7413D2*
X11795D1*
X24079D2*
Y8201D1*
Y9461D2*
Y8673D1*
Y8201D2*
G02X24079Y8673I0J236D01*
G01*
X25531Y8386D2*
D15*
G02X24346Y8394I-592J97D01*
G01*
X25707Y9141D2*
D56*
X25731Y9213D1*
X25803Y9261D1*
X25922Y9284D1*
X25994D1*
X26113Y9261D1*
X26185Y9213D1*
X26209Y9141D1*
Y9093D1*
X26185Y9021D1*
X26113Y8974D1*
X25994Y8949D1*
X25922D1*
X25803Y8974D1*
X25731Y9021D1*
X25707Y9093D1*
Y9141D1*
X25803Y8974D2*
X26113Y9261D1*
X26185Y8747D2*
X26209Y8771D1*
X26185Y8795D1*
X26161Y8771D1*
X26185Y8747D1*
X26233D1*
X26281Y8771D1*
X26305Y8795D1*
X25803Y8593D2*
X25778Y8545D1*
X25707Y8473D1*
X26209D1*
X25874Y8318D2*
X26113D1*
X26185Y8294D1*
X26209Y8246D1*
Y8175D1*
X26185Y8127D1*
X26113Y8055D1*
X25874D2*
X26209D1*
X25707Y7590D2*
Y7901D1*
X26209D1*
X25946D2*
Y7710D1*
X23104Y11479D2*
X22889D1*
X22818Y11503D1*
X22793Y11527D1*
X22770Y11575D1*
Y11623D1*
X22793Y11670D1*
X22818Y11695D1*
X22889Y11718D1*
X23104D1*
Y11216D1*
X22937Y11479D2*
X22770Y11216D1*
X19852Y8216D2*
Y8718D1*
X20043Y8216D1*
X20235Y8718D1*
Y8216D1*
X19315D2*
X19507Y8718D1*
X19698Y8216D1*
X19626Y8383D2*
X19387D1*
X19160Y8718D2*
X18825Y8216D1*
Y8718D2*
X19160Y8216D1*
X18575D2*
X18336Y8718D1*
X18671D1*
X18157Y8598D2*
Y8622D1*
X18134Y8670D1*
X18110Y8694D1*
X18062Y8718D1*
X17966D1*
X17919Y8694D1*
X17895Y8670D1*
X17871Y8622D1*
Y8575D1*
X17895Y8527D1*
X17942Y8455D1*
X18182Y8216D1*
X17847D1*
X17692Y8622D2*
X17644Y8646D1*
X17572Y8718D1*
Y8216D1*
X17107Y8551D2*
X17131Y8479D1*
X17179Y8431D1*
X17251Y8407D1*
X17274D1*
X17346Y8431D1*
X17394Y8479D1*
X17418Y8551D1*
Y8575D1*
X17394Y8646D1*
X17346Y8694D1*
X17274Y8718D1*
X17251D1*
X17179Y8694D1*
X17131Y8646D1*
X17107Y8551D1*
Y8431D1*
X17131Y8312D1*
X17179Y8240D1*
X17251Y8216D1*
X17298D1*
X17370Y8240D1*
X17394Y8288D1*
X16642Y8718D2*
X16952D1*
Y8216D1*
X16642D1*
X16952Y8479D2*
X16761D1*
X16153Y8718D2*
Y8216D1*
X16487Y8718D1*
Y8216D1*
X15639Y8599D2*
X15663Y8646D1*
X15711Y8695D1*
X15759Y8718D1*
X15854D1*
X15903Y8695D1*
X15950Y8646D1*
X15974Y8599D1*
X15998Y8527D1*
Y8407D1*
X15974Y8336D1*
X15950Y8288D1*
X15903Y8240D1*
X15854Y8216D1*
X15759D1*
X15711Y8240D1*
X15663Y8288D1*
X15639Y8336D1*
Y8407D1*
X15759D1*
X7723Y6690D2*
D57*
Y6173D1*
X7981Y6431D2*
X7465D1*
X6935Y6733D2*
X7222D1*
X7250Y6475D1*
X7222Y6503D1*
X7136Y6533D1*
X7050D1*
X6964Y6503D1*
X6906Y6446D1*
X6878Y6360D1*
Y6303D1*
X6906Y6217D1*
X6964Y6159D1*
X7050Y6131D1*
X7136D1*
X7222Y6159D1*
X7250Y6188D1*
X7279Y6245D1*
X6692Y6734D2*
X6463Y6131D1*
X6233Y6734D1*
X7408Y7653D2*
X7436Y7710D1*
X7494Y7767D1*
X7551Y7796D1*
X7666D1*
X7723Y7767D1*
X7780Y7710D1*
X7810Y7653D1*
X7838Y7567D1*
Y7423D1*
X7810Y7337D1*
X7780Y7279D1*
X7723Y7222D1*
X7666Y7193D1*
X7551D1*
X7494Y7222D1*
X7436Y7279D1*
X7408Y7337D1*
Y7423D1*
X7551D1*
X6821Y7796D2*
Y7193D1*
X7222Y7796D1*
Y7193D1*
X6635Y7796D2*
Y7193D1*
X6434D1*
X6348Y7222D1*
X6290Y7279D1*
X6262Y7337D1*
X6233Y7423D1*
Y7567D1*
X6262Y7653D1*
X6290Y7710D1*
X6348Y7767D1*
X6434Y7796D1*
X6635D1*
X8454Y8734D2*
Y8131D1*
X8110D1*
X7752Y8734D2*
X7810Y8705D1*
X7867Y8647D1*
X7896Y8590D1*
X7924Y8504D1*
Y8360D1*
X7896Y8275D1*
X7867Y8217D1*
X7810Y8160D1*
X7752Y8131D1*
X7637D1*
X7580Y8160D1*
X7522Y8217D1*
X7494Y8275D1*
X7465Y8360D1*
Y8504D1*
X7494Y8590D1*
X7522Y8647D1*
X7580Y8705D1*
X7637Y8734D1*
X7752D1*
X6821Y8131D2*
X7051Y8734D1*
X7280Y8131D1*
X7194Y8332D2*
X6907D1*
X6635Y8734D2*
Y8131D1*
X6434D1*
X6348Y8160D1*
X6290Y8217D1*
X6262Y8275D1*
X6233Y8360D1*
Y8504D1*
X6262Y8590D1*
X6290Y8647D1*
X6348Y8705D1*
X6434Y8734D1*
X6635D1*
X7287Y9653D2*
X7316Y9710D1*
X7374Y9767D1*
X7431Y9796D1*
X7545D1*
X7603Y9767D1*
X7660Y9710D1*
X7689Y9653D1*
X7718Y9567D1*
Y9423D1*
X7689Y9337D1*
X7660Y9279D1*
X7603Y9222D1*
X7545Y9193D1*
X7431D1*
X7374Y9222D1*
X7316Y9279D1*
X7287Y9337D1*
X7102Y9796D2*
Y9193D1*
X6758D1*
X6573Y9796D2*
Y9193D1*
X6171Y9796D2*
X6573Y9394D1*
X6429Y9538D2*
X6171Y9193D1*
X8733Y10796D2*
Y10193D1*
X8532D1*
X8446Y10222D1*
X8388Y10279D1*
X8359Y10337D1*
X8331Y10423D1*
Y10567D1*
X8359Y10653D1*
X8388Y10710D1*
X8446Y10767D1*
X8532Y10796D1*
X8733D1*
X7801Y10595D2*
Y10193D1*
Y10509D2*
X7858Y10567D1*
X7916Y10595D1*
X8002D1*
X8059Y10567D1*
X8116Y10509D1*
X8146Y10423D1*
Y10366D1*
X8116Y10279D1*
X8059Y10222D1*
X8002Y10193D1*
X7916D1*
X7858Y10222D1*
X7801Y10279D1*
X7530Y10796D2*
Y10308D1*
X7501Y10222D1*
X7444Y10193D1*
X7387D1*
X7616Y10595D2*
X7415D1*
X6857D2*
Y10193D1*
Y10509D2*
X6914Y10567D1*
X6972Y10595D1*
X7057D1*
X7115Y10567D1*
X7172Y10509D1*
X7201Y10423D1*
Y10366D1*
X7172Y10279D1*
X7115Y10222D1*
X7057Y10193D1*
X6972D1*
X6914Y10222D1*
X6857Y10279D1*
X6672Y10796D2*
Y10193D1*
X6487Y10595D2*
Y10193D1*
Y10480D2*
X6400Y10567D1*
X6343Y10595D1*
X6257D1*
X6199Y10567D1*
X6171Y10480D1*
Y10193D1*
X40184Y9381D2*
Y9984D1*
X40413Y9381D1*
X40643Y9984D1*
Y9381D1*
X39654Y9783D2*
Y9381D1*
Y9696D2*
X39711Y9754D1*
X39769Y9783D1*
X39855D1*
X39912Y9754D1*
X39969Y9696D1*
X39998Y9610D1*
Y9553D1*
X39969Y9467D1*
X39912Y9410D1*
X39855Y9381D1*
X39769D1*
X39711Y9410D1*
X39654Y9467D1*
X39469Y9783D2*
X39153Y9381D1*
Y9783D2*
X39469Y9381D1*
X38853D2*
X38566Y9983D1*
X38968D1*
X38352Y9840D2*
Y9868D1*
X38323Y9926D1*
X38295Y9954D1*
X38237Y9983D1*
X38122D1*
X38065Y9954D1*
X38037Y9926D1*
X38007Y9868D1*
Y9811D1*
X38037Y9753D1*
X38094Y9668D1*
X38381Y9381D1*
X37979D1*
X37794Y9868D2*
X37736Y9897D1*
X37650Y9983D1*
Y9381D1*
X37091Y9783D2*
X37120Y9696D1*
X37177Y9639D1*
X37263Y9610D1*
X37292D1*
X37378Y9639D1*
X37435Y9696D1*
X37464Y9783D1*
Y9811D1*
X37435Y9897D1*
X37378Y9954D1*
X37292Y9983D1*
X37263D1*
X37177Y9954D1*
X37120Y9897D1*
X37091Y9783D1*
Y9639D1*
X37120Y9495D1*
X37177Y9409D1*
X37263Y9381D1*
X37321D1*
X37407Y9409D1*
X37435Y9467D1*
X36208Y9381D2*
X35921Y9983D1*
X36323D1*
X34750Y9897D2*
X34807Y9955D1*
X34893Y9984D1*
X35008D1*
X35094Y9955D1*
X35152Y9897D1*
Y9840D1*
X35123Y9783D1*
X35094Y9754D1*
X35037Y9726D1*
X34865Y9668D1*
X34807Y9639D1*
X34779Y9610D1*
X34750Y9553D1*
Y9467D1*
X34807Y9410D1*
X34893Y9381D1*
X35008D1*
X35094Y9410D1*
X35152Y9467D1*
X34565Y9610D2*
X34221D1*
Y9668D1*
X34249Y9726D1*
X34278Y9754D1*
X34335Y9783D1*
X34422D1*
X34479Y9754D1*
X34536Y9696D1*
X34565Y9610D1*
Y9553D1*
X34536Y9467D1*
X34479Y9410D1*
X34422Y9381D1*
X34335D1*
X34278Y9410D1*
X34221Y9467D1*
X33691Y9754D2*
Y9294D1*
X33720Y9209D1*
X33748Y9180D1*
X33806Y9151D1*
X33892D1*
X33949Y9180D1*
X33691Y9668D2*
X33748Y9725D1*
X33806Y9754D1*
X33892D1*
X33949Y9725D1*
X34007Y9668D1*
X34035Y9582D1*
Y9524D1*
X34007Y9438D1*
X33949Y9381D1*
X33892Y9352D1*
X33806D1*
X33748Y9381D1*
X33691Y9438D1*
X33506Y9783D2*
Y9381D1*
Y9668D2*
X33420Y9754D1*
X33362Y9783D1*
X33276D1*
X33219Y9754D1*
X33190Y9668D1*
Y9381D1*
Y9668D2*
X33104Y9754D1*
X33046Y9783D1*
X32961D1*
X32903Y9754D1*
X32874Y9668D1*
Y9381D1*
X32689Y9610D2*
X32344D1*
Y9668D1*
X32373Y9726D1*
X32401Y9754D1*
X32459Y9783D1*
X32545D1*
X32602Y9754D1*
X32660Y9696D1*
X32689Y9610D1*
Y9553D1*
X32660Y9467D1*
X32602Y9410D1*
X32545Y9381D1*
X32459D1*
X32401Y9410D1*
X32344Y9467D1*
X32159Y9783D2*
Y9381D1*
Y9668D2*
X32073Y9754D1*
X32015Y9783D1*
X31930D1*
X31872Y9754D1*
X31843Y9668D1*
Y9381D1*
X31572Y9984D2*
Y9495D1*
X31543Y9410D1*
X31486Y9381D1*
X31429D1*
X31658Y9783D2*
X31457D1*
X40656Y8416D2*
X40541Y8014D1*
X40427Y8416D1*
X40312Y8014D1*
X40197Y8416D1*
X40012D2*
X39897Y8014D1*
X39782Y8416D1*
X39668Y8014D1*
X39553Y8416D1*
X39368D2*
X39253Y8014D1*
X39138Y8416D1*
X39023Y8014D1*
X38909Y8416D1*
X38695Y8072D2*
X38723Y8043D1*
X38695Y8014D1*
X38666Y8043D1*
X38695Y8072D1*
X38136Y8416D2*
Y8014D1*
Y8330D2*
X38193Y8387D1*
X38251Y8416D1*
X38336D1*
X38394Y8387D1*
X38451Y8330D1*
X38480Y8243D1*
Y8186D1*
X38451Y8100D1*
X38394Y8043D1*
X38336Y8014D1*
X38251D1*
X38193Y8043D1*
X38136Y8100D1*
X37951Y8617D2*
Y8014D1*
X37421Y8416D2*
Y8014D1*
Y8330D2*
X37478Y8387D1*
X37536Y8416D1*
X37622D1*
X37679Y8387D1*
X37736Y8330D1*
X37766Y8243D1*
Y8186D1*
X37736Y8100D1*
X37679Y8043D1*
X37622Y8014D1*
X37536D1*
X37478Y8043D1*
X37421Y8100D1*
X37236Y8617D2*
X37208Y8588D1*
X37178Y8617D1*
X37208Y8646D1*
X37236Y8617D1*
X37208Y8416D2*
Y8014D1*
X36993Y8416D2*
Y8014D1*
Y8301D2*
X36907Y8387D1*
X36849Y8416D1*
X36764D1*
X36706Y8387D1*
X36677Y8301D1*
Y8014D1*
X36176Y8330D2*
X36205Y8387D1*
X36291Y8416D1*
X36377D1*
X36464Y8387D1*
X36492Y8330D1*
X36464Y8273D1*
X36406Y8243D1*
X36263Y8215D1*
X36205Y8186D1*
X36176Y8129D1*
Y8100D1*
X36205Y8043D1*
X36291Y8014D1*
X36377D1*
X36464Y8043D1*
X36492Y8100D1*
X35991Y8416D2*
Y7813D1*
Y8330D2*
X35934Y8387D1*
X35876Y8416D1*
X35790D1*
X35733Y8387D1*
X35676Y8330D1*
X35646Y8243D1*
Y8186D1*
X35676Y8100D1*
X35733Y8043D1*
X35790Y8014D1*
X35876D1*
X35934Y8043D1*
X35991Y8100D1*
X35461Y8416D2*
Y8014D1*
Y8243D2*
X35432Y8330D1*
X35375Y8387D1*
X35317Y8416D1*
X35231D1*
X34902D2*
X34959Y8387D1*
X35017Y8330D1*
X35046Y8243D1*
Y8186D1*
X35017Y8100D1*
X34959Y8043D1*
X34902Y8014D1*
X34816D1*
X34758Y8043D1*
X34701Y8100D1*
X34672Y8186D1*
Y8243D1*
X34701Y8330D1*
X34758Y8387D1*
X34816Y8416D1*
X34902D1*
X34372Y8618D2*
X34343Y8589D1*
X34315Y8618D1*
X34343Y8646D1*
X34372Y8618D1*
X34343Y8417D2*
Y7928D1*
X34372Y7842D1*
X34429Y7814D1*
X34487D1*
X34129Y8243D2*
X33785D1*
Y8301D1*
X33814Y8359D1*
X33842Y8387D1*
X33900Y8416D1*
X33986D1*
X34043Y8387D1*
X34101Y8330D1*
X34129Y8243D1*
Y8186D1*
X34101Y8100D1*
X34043Y8043D1*
X33986Y8014D1*
X33900D1*
X33842Y8043D1*
X33785Y8100D1*
X33255Y8330D2*
X33313Y8387D1*
X33370Y8416D1*
X33456D1*
X33514Y8387D1*
X33571Y8330D1*
X33600Y8243D1*
Y8186D1*
X33571Y8100D1*
X33514Y8043D1*
X33456Y8014D1*
X33370D1*
X33313Y8043D1*
X33255Y8100D1*
X32983Y8617D2*
Y8129D1*
X32955Y8043D1*
X32897Y8014D1*
X32840D1*
X33070Y8416D2*
X32869D1*
X32339Y8330D2*
X32368Y8387D1*
X32454Y8416D1*
X32540D1*
X32626Y8387D1*
X32655Y8330D1*
X32626Y8273D1*
X32569Y8243D1*
X32425Y8215D1*
X32368Y8186D1*
X32339Y8129D1*
Y8100D1*
X32368Y8043D1*
X32454Y8014D1*
X32540D1*
X32626Y8043D1*
X32655Y8100D1*
X32125Y8072D2*
X32154Y8043D1*
X32125Y8014D1*
X32096Y8043D1*
X32125Y8072D1*
X31566Y8330D2*
X31624Y8387D1*
X31681Y8416D1*
X31767D1*
X31825Y8387D1*
X31882Y8330D1*
X31911Y8243D1*
Y8186D1*
X31882Y8100D1*
X31825Y8043D1*
X31767Y8014D1*
X31681D1*
X31624Y8043D1*
X31566Y8100D1*
X31238Y8416D2*
X31295Y8387D1*
X31352Y8330D1*
X31381Y8243D1*
Y8186D1*
X31352Y8100D1*
X31295Y8043D1*
X31238Y8014D1*
X31151D1*
X31094Y8043D1*
X31037Y8100D1*
X31007Y8186D1*
Y8243D1*
X31037Y8330D1*
X31094Y8387D1*
X31151Y8416D1*
X31238D1*
X30822D2*
Y8014D1*
Y8301D2*
X30736Y8387D1*
X30678Y8416D1*
X30593D1*
X30535Y8387D1*
X30506Y8301D1*
Y8014D1*
Y8301D2*
X30420Y8387D1*
X30362Y8416D1*
X30277D1*
X30219Y8387D1*
X30190Y8301D1*
Y8014D1*
X40683Y7412D2*
X40453Y6809D1*
X40224Y7412D1*
X40039Y7039D2*
X39694D1*
Y7096D1*
X39723Y7154D1*
X39751Y7183D1*
X39809Y7211D1*
X39895D1*
X39952Y7183D1*
X40010Y7125D1*
X40039Y7039D1*
Y6982D1*
X40010Y6895D1*
X39952Y6838D1*
X39895Y6809D1*
X39809D1*
X39751Y6838D1*
X39694Y6895D1*
X39509Y7211D2*
Y6809D1*
Y7039D2*
X39480Y7125D1*
X39423Y7183D1*
X39365Y7211D1*
X39279D1*
X38510Y7297D2*
X38453Y7326D1*
X38367Y7411D1*
Y6809D1*
X38153Y6867D2*
X38181Y6838D1*
X38153Y6809D1*
X38124Y6838D1*
X38153Y6867D1*
X37938Y7297D2*
X37881Y7326D1*
X37794Y7411D1*
Y6809D1*
M02*
