M48
INCH
T01C0.0191
T02C0.0354
T03C0.038
T04C0.1181
%
T01
X+019031Y+005427
X+019400Y+004915
X+020400Y+005427
X+021400Y+005437
X+019937Y+008134
X+019400Y+009363
X+017400Y+007767
X+015937Y+007767
X+015400Y+008884
X+032411Y+011847
X+032779Y+010858
T02
X+024437Y+007437
X+024437Y+008437
X+024437Y+009437
X+022937Y+009937
X+021937Y+009937
X+020937Y+009937
X+019937Y+009937
X+018937Y+009937
X+017937Y+009937
X+016937Y+009937
X+015937Y+009937
X+014937Y+009937
X+013937Y+009937
X+012937Y+009937
X+011937Y+009937
X+013398Y+011437
X+014398Y+011437
X+015398Y+011437
X+016398Y+011437
X+017398Y+011437
X+018398Y+011437
X+017937Y+006937
X+018937Y+006937
X+019937Y+006937
X+020937Y+006937
X+021937Y+006937
X+022937Y+006937
X+018398Y+005437
X+017398Y+005437
X+016398Y+005437
X+015398Y+005437
X+014398Y+005437
X+013398Y+005437
X+012937Y+006937
X+013937Y+006937
X+014937Y+006937
X+015937Y+006937
X+016937Y+006937
X+011937Y+006937
X+004937Y+007437
X+004937Y+008437
X+004937Y+009437
X+004937Y+010437
X+004937Y+006437
X+033226Y+005437
X+034226Y+005437
X+035226Y+005437
X+036226Y+005437
X+037226Y+005437
X+038226Y+005437
X+038226Y+011437
X+037226Y+011437
X+036226Y+011437
X+035226Y+011437
X+034226Y+011437
X+033226Y+011437
T03
X+024437Y+011437
X+020437Y+011437
T04
X+004937Y+011937
X+004937Y+004937
X+046687Y+004937
X+046687Y+011937
T00
M30
