G04 DipTrace 2.4.0.2*
%IN7seg2x4.toplayer.ger*%
%MOIN*%
%ADD13C,0.0177*%
%ADD14C,0.0236*%
%ADD16C,0.063*%
%ADD17R,0.063X0.063*%
%ADD18R,0.0748X0.0748*%
%ADD19C,0.0748*%
%ADD21C,0.0591*%
%ADD22C,0.06*%
%ADD23C,0.06*%
%ADD24R,0.0591X0.0591*%
%ADD25C,0.0591*%
%ADD26R,0.0709X0.0709*%
%ADD27C,0.0709*%
%ADD28C,0.04*%
%FSLAX44Y44*%
G04*
G70*
G90*
G75*
G01*
%LNTop*%
%LPD*%
X20900Y5437D2*
D13*
X19531D1*
X17898D2*
X18419Y5959D1*
X37205D1*
X37726Y5437D1*
X32680Y10654D2*
Y10175D1*
X32424Y9919D1*
X24226D1*
X23573Y9267D1*
X21046D1*
X20903Y9125D1*
X15249D1*
X14437Y9937D1*
X15156Y10656D1*
X15642D1*
X15898Y10911D1*
Y11437D1*
X23532Y5437D2*
X33726D1*
X11863Y12215D2*
Y5693D1*
X12119Y5437D1*
X13898D1*
X22437Y8287D2*
X23050Y8900D1*
X33359D1*
X22437D2*
X21790D1*
X21647Y8757D1*
X15900D1*
X16898Y5437D2*
X17419Y4915D1*
X19900D1*
X36205D1*
X36726Y5437D1*
X18898Y11437D2*
Y10656D1*
X18642Y10400D1*
X15900D1*
X15437Y9937D1*
X32201Y10287D2*
X32088Y10400D1*
X21193D1*
X20156Y11437D1*
X18450Y10804D2*
X17437D1*
X14898Y11437D2*
X15621Y12160D1*
X34003D1*
X34726Y11437D1*
X33726D2*
Y8175D1*
X33470Y7919D1*
X23419D1*
X22437Y6937D1*
X36726Y11437D2*
X35747Y12416D1*
X13156D1*
X12900Y12160D1*
Y7474D1*
X13437Y6937D1*
X37726Y11437D2*
X32760Y6470D1*
X18904D1*
X18437Y6937D1*
X17437D2*
X18159Y6215D1*
X37949D1*
X38726Y5437D1*
X13898Y11437D2*
Y10401D1*
X13900Y10399D1*
Y8646D1*
X14156Y8390D1*
X21181D1*
X21437Y8134D1*
Y6937D1*
X16437Y7767D2*
X17900D1*
X24937Y11437D2*
X24470Y11904D1*
X20044D1*
X19788Y11648D1*
Y10971D1*
X19900Y10860D1*
Y9637D1*
X19644Y9381D1*
X18993D1*
X18437Y9937D1*
X20267Y8023D2*
X20156Y8134D1*
X14156D1*
X13900Y7878D1*
Y6482D1*
X13265Y5847D1*
X20437Y6937D2*
X19974Y7400D1*
X15900D1*
X15437Y6937D1*
D28*
X19531Y5437D3*
X20900D3*
X32680Y10654D3*
X11863Y12215D3*
X23532Y5437D3*
X33359Y8900D3*
X22437Y8287D3*
X15900Y8757D3*
X22437Y8900D3*
X19900Y4915D3*
X20156Y11437D3*
X32201Y10287D3*
X17437Y10804D3*
X18450D3*
X17900Y7767D3*
X16437D3*
X13265Y5847D3*
X20267Y8023D3*
X5780Y12324D2*
D14*
X11395D1*
X12331D2*
X12572D1*
X36352D2*
X46595D1*
X5854Y12089D2*
X11398D1*
X12328D2*
X12531D1*
X36588D2*
X46521D1*
X5865Y11854D2*
X11494D1*
X12232D2*
X12531D1*
X13269D2*
X13428D1*
X39198D2*
X46510D1*
X5809Y11619D2*
X11494D1*
X12232D2*
X12531D1*
X25486D2*
X33119D1*
X39334D2*
X46566D1*
X5680Y11385D2*
X11494D1*
X12232D2*
X12531D1*
X21514D2*
X24357D1*
X25515D2*
X33094D1*
X39360D2*
X46695D1*
X4339Y11150D2*
X4463D1*
X5411D2*
X11494D1*
X12232D2*
X12531D1*
X21437D2*
X24435D1*
X25438D2*
X33164D1*
X39290D2*
X46964D1*
X47908D2*
X48035D1*
X4339Y10915D2*
X5031D1*
X6341D2*
X11494D1*
X12232D2*
X12531D1*
X13269D2*
X13528D1*
X14265D2*
X14554D1*
X16266D2*
X16555D1*
X19267D2*
X19422D1*
X21190D2*
X24719D1*
X25154D2*
X32282D1*
X33078D2*
X33356D1*
X34097D2*
X34385D1*
X35068D2*
X35386D1*
X36068D2*
X36386D1*
X38068D2*
X38383D1*
X39069D2*
X48035D1*
X4339Y10680D2*
X5031D1*
X6341D2*
X11494D1*
X12232D2*
X12531D1*
X13269D2*
X13528D1*
X14265D2*
X14668D1*
X19267D2*
X19529D1*
X20271D2*
X20400D1*
X33159D2*
X33356D1*
X34097D2*
X36456D1*
X37481D2*
X48035D1*
X4339Y10445D2*
X5031D1*
X6341D2*
X11494D1*
X33111D2*
X33356D1*
X34097D2*
X36220D1*
X37249D2*
X48035D1*
X4339Y10210D2*
X5031D1*
X6341D2*
X11494D1*
X33049D2*
X33356D1*
X34097D2*
X35987D1*
X37013D2*
X48035D1*
X4339Y9975D2*
X5031D1*
X6341D2*
X11494D1*
X32986D2*
X33356D1*
X34097D2*
X35751D1*
X36776D2*
X48035D1*
X4339Y9740D2*
X5109D1*
X6263D2*
X11494D1*
X32757D2*
X33356D1*
X34097D2*
X35515D1*
X36544D2*
X48035D1*
X4339Y9505D2*
X5035D1*
X6337D2*
X11494D1*
X25534D2*
X33356D1*
X34097D2*
X35282D1*
X36308D2*
X48035D1*
X4339Y9270D2*
X5054D1*
X6319D2*
X11494D1*
X12232D2*
X12531D1*
X13269D2*
X13532D1*
X14269D2*
X14591D1*
X25534D2*
X33068D1*
X34097D2*
X35046D1*
X36071D2*
X48035D1*
X4339Y9035D2*
X5175D1*
X6197D2*
X11494D1*
X12232D2*
X12531D1*
X13269D2*
X13532D1*
X14269D2*
X14827D1*
X34097D2*
X34814D1*
X35839D2*
X48035D1*
X4339Y8801D2*
X5146D1*
X6227D2*
X11494D1*
X12232D2*
X12531D1*
X13269D2*
X13532D1*
X14269D2*
X15104D1*
X34097D2*
X34577D1*
X35603D2*
X48035D1*
X4339Y8566D2*
X5046D1*
X6330D2*
X11494D1*
X12232D2*
X12531D1*
X13269D2*
X13539D1*
X34097D2*
X34341D1*
X35367D2*
X48035D1*
X4339Y8331D2*
X5042D1*
X6334D2*
X11494D1*
X12232D2*
X12531D1*
X13269D2*
X13701D1*
X21747D2*
X21958D1*
X22994D2*
X24372D1*
X25504D2*
X33356D1*
X35134D2*
X48035D1*
X4339Y8096D2*
X5131D1*
X6241D2*
X11494D1*
X12232D2*
X12531D1*
X13269D2*
X13605D1*
X21806D2*
X21999D1*
X22876D2*
X23084D1*
X34898D2*
X48035D1*
X4339Y7861D2*
X5194D1*
X6179D2*
X11494D1*
X12232D2*
X12531D1*
X13269D2*
X13532D1*
X20717D2*
X21069D1*
X21806D2*
X22246D1*
X22629D2*
X22848D1*
X34662D2*
X48035D1*
X4339Y7626D2*
X5061D1*
X6311D2*
X11494D1*
X12232D2*
X12531D1*
X13269D2*
X13532D1*
X14269D2*
X15613D1*
X20518D2*
X21069D1*
X21806D2*
X22611D1*
X34429D2*
X48035D1*
X4339Y7391D2*
X5035D1*
X6341D2*
X11494D1*
X14775D2*
X15097D1*
X20776D2*
X21069D1*
X21806D2*
X22098D1*
X24013D2*
X24342D1*
X25530D2*
X33167D1*
X34193D2*
X48035D1*
X4339Y7156D2*
X5098D1*
X6274D2*
X11494D1*
X24013D2*
X24416D1*
X25460D2*
X32931D1*
X33957D2*
X48035D1*
X4339Y6921D2*
X5257D1*
X6116D2*
X11494D1*
X24013D2*
X24664D1*
X25209D2*
X32699D1*
X33724D2*
X48035D1*
X4339Y6686D2*
X5083D1*
X6289D2*
X11494D1*
X33488D2*
X48035D1*
X4339Y6451D2*
X5031D1*
X6341D2*
X11494D1*
X12726D2*
X13148D1*
X14723D2*
X15148D1*
X15723D2*
X16148D1*
X16724D2*
X17149D1*
X38223D2*
X48035D1*
X4339Y6217D2*
X5072D1*
X6304D2*
X11494D1*
X12232D2*
X12971D1*
X14147D2*
X17643D1*
X38460D2*
X48035D1*
X4339Y5982D2*
X5227D1*
X6149D2*
X11494D1*
X12232D2*
X12805D1*
X15199D2*
X15595D1*
X16199D2*
X16595D1*
X17200D2*
X17595D1*
X39028D2*
X48035D1*
X4339Y5747D2*
X4504D1*
X5370D2*
X11494D1*
X39279D2*
X47005D1*
X47868D2*
X48035D1*
X5662Y5512D2*
X11546D1*
X21374D2*
X23058D1*
X39356D2*
X46713D1*
X5802Y5277D2*
X11767D1*
X21352D2*
X23080D1*
X39342D2*
X46573D1*
X5861Y5042D2*
X13262D1*
X39216D2*
X46514D1*
X5857Y4807D2*
X17016D1*
X36610D2*
X46518D1*
X5791Y4572D2*
X17352D1*
X36271D2*
X46584D1*
X5640Y4337D2*
X46732D1*
X25497Y7320D2*
X25461Y7207D1*
X25403Y7105D1*
X25325Y7016D1*
X25231Y6946D1*
X25124Y6896D1*
X25009Y6869D1*
X24891Y6866D1*
X24775Y6888D1*
X24666Y6933D1*
X24569Y6999D1*
X24487Y7083D1*
X24424Y7183D1*
X24383Y7294D1*
X24365Y7410D1*
X24372Y7528D1*
X24384Y7574D1*
X23560Y7573D1*
X23593Y7490D1*
X23990D1*
Y6814D1*
X26344Y6817D1*
X32615D1*
X33374Y7574D1*
X25494Y7573D1*
X25509Y7437D1*
X25497Y7320D1*
X25509Y9570D2*
Y9245D1*
X33064Y9246D1*
X33108Y9282D1*
X33214Y9333D1*
X33329Y9356D1*
X33377Y9353D1*
X33380Y10301D1*
Y10932D1*
X33311Y10988D1*
X33233Y11076D1*
X33173Y11177D1*
X33133Y11288D1*
X33115Y11405D1*
X33121Y11523D1*
X33148Y11637D1*
X33197Y11744D1*
X33247Y11813D1*
X25348Y11814D1*
X25408Y11734D1*
X25461Y11629D1*
X25489Y11514D1*
X25494Y11437D1*
X25482Y11320D1*
X25445Y11208D1*
X25386Y11106D1*
X25306Y11019D1*
X25210Y10951D1*
X25102Y10904D1*
X24986Y10882D1*
X24868Y10884D1*
X24753Y10911D1*
X24647Y10961D1*
X24553Y11033D1*
X24477Y11123D1*
X24421Y11226D1*
X24388Y11340D1*
X24380Y11457D1*
X24386Y11497D1*
X24324Y11560D1*
X21635Y11558D1*
X21484D1*
X21494Y11437D1*
X21482Y11320D1*
X21445Y11208D1*
X21386Y11106D1*
X21306Y11019D1*
X21210Y10951D1*
X21152Y10926D1*
X21337Y10745D1*
X32125Y10744D1*
X32233Y10739D1*
X32272Y10862D1*
X32339Y10959D1*
X32428Y11036D1*
X32534Y11088D1*
X32650Y11110D1*
X32767Y11103D1*
X32879Y11066D1*
X32978Y11001D1*
X33056Y10914D1*
X33110Y10809D1*
X33137Y10654D1*
X33122Y10537D1*
X33077Y10428D1*
X33026Y10360D1*
Y10175D1*
X33006Y10059D1*
X32941Y9948D1*
X32668Y9675D1*
X32572Y9607D1*
X32448Y9574D1*
X25511Y9573D1*
X5199Y11069D2*
X6319D1*
Y9806D1*
X6197D1*
X6246Y9732D1*
X6291Y9623D1*
X6315Y9507D1*
X6319Y9437D1*
X6307Y9320D1*
X6275Y9206D1*
X6222Y9101D1*
X6150Y9007D1*
X6070Y8936D1*
X6181Y8830D1*
X6246Y8732D1*
X6291Y8623D1*
X6315Y8507D1*
X6319Y8437D1*
X6307Y8320D1*
X6275Y8206D1*
X6222Y8101D1*
X6150Y8007D1*
X6070Y7936D1*
X6181Y7830D1*
X6246Y7732D1*
X6291Y7623D1*
X6315Y7507D1*
X6319Y7437D1*
X6307Y7320D1*
X6275Y7206D1*
X6222Y7101D1*
X6150Y7007D1*
X6070Y6936D1*
X6181Y6830D1*
X6246Y6732D1*
X6291Y6623D1*
X6315Y6507D1*
X6319Y6437D1*
X6307Y6320D1*
X6275Y6206D1*
X6222Y6101D1*
X6150Y6007D1*
X6062Y5929D1*
X5961Y5868D1*
X5850Y5827D1*
X5734Y5807D1*
X5616Y5810D1*
X5501Y5834D1*
X5392Y5879D1*
X5293Y5943D1*
X5208Y6025D1*
X5140Y6122D1*
X5091Y6229D1*
X5063Y6343D1*
X5056Y6461D1*
X5071Y6578D1*
X5108Y6690D1*
X5165Y6793D1*
X5241Y6884D1*
X5306Y6938D1*
X5208Y7025D1*
X5140Y7122D1*
X5091Y7229D1*
X5063Y7343D1*
X5056Y7461D1*
X5071Y7578D1*
X5108Y7690D1*
X5165Y7793D1*
X5241Y7884D1*
X5306Y7938D1*
X5208Y8025D1*
X5140Y8122D1*
X5091Y8229D1*
X5063Y8343D1*
X5056Y8461D1*
X5071Y8578D1*
X5108Y8690D1*
X5165Y8793D1*
X5241Y8884D1*
X5306Y8938D1*
X5208Y9025D1*
X5140Y9122D1*
X5091Y9229D1*
X5063Y9343D1*
X5056Y9461D1*
X5071Y9578D1*
X5108Y9690D1*
X5177Y9807D1*
X5056Y9806D1*
Y11040D1*
X4944Y11030D1*
X4826Y11037D1*
X4710Y11059D1*
X4598Y11096D1*
X4492Y11147D1*
X4393Y11211D1*
X4317Y11276D1*
X4315Y10433D1*
Y5594D1*
X4371Y5645D1*
X4467Y5713D1*
X4572Y5767D1*
X4683Y5808D1*
X4798Y5833D1*
X4916Y5844D1*
X5034Y5839D1*
X5150Y5818D1*
X5263Y5783D1*
X5370Y5734D1*
X5470Y5671D1*
X5560Y5596D1*
X5641Y5509D1*
X5709Y5413D1*
X5764Y5309D1*
X5805Y5198D1*
X5832Y5083D1*
X5844Y4937D1*
X5836Y4819D1*
X5813Y4703D1*
X5775Y4592D1*
X5724Y4486D1*
X5658Y4387D1*
X5593Y4312D1*
X6205Y4315D1*
X46779D1*
X46724Y4376D1*
X46658Y4473D1*
X46604Y4579D1*
X46565Y4690D1*
X46540Y4805D1*
X46530Y4923D1*
X46536Y5041D1*
X46557Y5157D1*
X46593Y5269D1*
X46644Y5376D1*
X46707Y5475D1*
X46783Y5566D1*
X46871Y5645D1*
X46967Y5713D1*
X47072Y5767D1*
X47183Y5808D1*
X47298Y5833D1*
X47416Y5844D1*
X47534Y5839D1*
X47650Y5818D1*
X47763Y5783D1*
X47870Y5734D1*
X47970Y5671D1*
X48058Y5598D1*
X48059Y9512D1*
Y11280D1*
X47992Y11220D1*
X47895Y11154D1*
X47789Y11101D1*
X47677Y11063D1*
X47562Y11039D1*
X47444Y11030D1*
X47326Y11037D1*
X47210Y11059D1*
X47098Y11096D1*
X46992Y11147D1*
X46893Y11211D1*
X46803Y11288D1*
X46724Y11376D1*
X46658Y11473D1*
X46604Y11579D1*
X46565Y11690D1*
X46540Y11805D1*
X46530Y11923D1*
X46536Y12041D1*
X46557Y12157D1*
X46593Y12269D1*
X46644Y12376D1*
X46707Y12475D1*
X46776Y12557D1*
X45343Y12559D1*
X36097D1*
X36616Y12037D1*
X36678Y12047D1*
X36796Y12045D1*
X36911Y12020D1*
X37020Y11974D1*
X37117Y11908D1*
X37200Y11824D1*
X37227Y11784D1*
X37266Y11840D1*
X37352Y11921D1*
X37452Y11984D1*
X37562Y12026D1*
X37678Y12047D1*
X37796Y12045D1*
X37911Y12020D1*
X38020Y11974D1*
X38117Y11908D1*
X38200Y11824D1*
X38227Y11784D1*
X38266Y11840D1*
X38352Y11921D1*
X38452Y11984D1*
X38562Y12026D1*
X38678Y12047D1*
X38796Y12045D1*
X38911Y12020D1*
X39020Y11974D1*
X39117Y11908D1*
X39200Y11824D1*
X39266Y11726D1*
X39311Y11617D1*
X39335Y11501D1*
X39338Y11437D1*
X39327Y11320D1*
X39293Y11207D1*
X39238Y11102D1*
X39165Y11010D1*
X39075Y10934D1*
X38972Y10877D1*
X38860Y10840D1*
X38743Y10825D1*
X38625Y10834D1*
X38511Y10864D1*
X38405Y10916D1*
X38311Y10988D1*
X38227Y11085D1*
X38165Y11010D1*
X38075Y10934D1*
X37972Y10877D1*
X37860Y10840D1*
X37743Y10825D1*
X37614Y10837D1*
X33339Y6560D1*
X37949Y6561D1*
X38065Y6541D1*
X38176Y6476D1*
X38614Y6039D1*
X38796Y6045D1*
X38911Y6020D1*
X39020Y5974D1*
X39117Y5908D1*
X39200Y5824D1*
X39266Y5726D1*
X39311Y5617D1*
X39335Y5501D1*
X39338Y5437D1*
X39327Y5320D1*
X39293Y5207D1*
X39238Y5102D1*
X39165Y5010D1*
X39075Y4934D1*
X38972Y4877D1*
X38860Y4840D1*
X38743Y4825D1*
X38625Y4834D1*
X38511Y4864D1*
X38405Y4916D1*
X38311Y4988D1*
X38227Y5085D1*
X38165Y5010D1*
X38075Y4934D1*
X37972Y4877D1*
X37860Y4840D1*
X37743Y4825D1*
X37625Y4834D1*
X37511Y4864D1*
X37405Y4916D1*
X37311Y4988D1*
X37227Y5085D1*
X37165Y5010D1*
X37075Y4934D1*
X36972Y4877D1*
X36860Y4840D1*
X36743Y4825D1*
X36614Y4837D1*
X36449Y4671D1*
X36353Y4603D1*
X36229Y4570D1*
X20197Y4569D1*
X20134Y4523D1*
X20026Y4476D1*
X19910Y4458D1*
X19792Y4471D1*
X19682Y4513D1*
X19602Y4571D1*
X17419Y4569D1*
X17303Y4589D1*
X17192Y4654D1*
X17010Y4835D1*
X16914Y4825D1*
X16796Y4834D1*
X16682Y4864D1*
X16576Y4916D1*
X16482Y4988D1*
X16398Y5085D1*
X16336Y5010D1*
X16246Y4934D1*
X16143Y4877D1*
X16031Y4840D1*
X15914Y4825D1*
X15796Y4834D1*
X15682Y4864D1*
X15576Y4916D1*
X15482Y4988D1*
X15398Y5085D1*
X15336Y5010D1*
X15246Y4934D1*
X15143Y4877D1*
X15031Y4840D1*
X14914Y4825D1*
X14796Y4834D1*
X14682Y4864D1*
X14576Y4916D1*
X14509Y4968D1*
Y4825D1*
X13286D1*
Y5095D1*
X12598Y5091D1*
X12119D1*
X12003Y5111D1*
X11892Y5176D1*
X11618Y5448D1*
X11551Y5544D1*
X11518Y5669D1*
X11517Y11912D1*
X11475Y11972D1*
X11426Y12079D1*
X11406Y12195D1*
X11416Y12312D1*
X11456Y12423D1*
X11522Y12520D1*
X11570Y12561D1*
X6366Y12559D1*
X5595D1*
X5709Y12413D1*
X5764Y12309D1*
X5805Y12198D1*
X5832Y12083D1*
X5844Y11937D1*
X5836Y11819D1*
X5813Y11703D1*
X5775Y11592D1*
X5724Y11486D1*
X5658Y11387D1*
X5581Y11298D1*
X5492Y11220D1*
X5395Y11154D1*
X5289Y11101D1*
X5195Y11069D1*
X25477Y8320D2*
X25460Y8267D1*
X28144Y8265D1*
X33329D1*
X33380Y8411D1*
Y8445D1*
X33252Y8455D1*
X33142Y8497D1*
X33061Y8555D1*
X26154Y8554D1*
X25479D1*
X25490Y8437D1*
X25477Y8320D1*
X24414Y8265D2*
X24390Y8354D1*
X24385Y8472D1*
X24400Y8556D1*
X23191Y8554D1*
X22895Y8256D1*
X22879Y8170D1*
X22835Y8061D1*
X22764Y7967D1*
X22671Y7894D1*
X22563Y7847D1*
X22447Y7829D1*
X22330Y7842D1*
X22220Y7884D1*
X22124Y7953D1*
X22049Y8044D1*
X22000Y8151D1*
X21980Y8267D1*
X21990Y8384D1*
X22030Y8495D1*
X22069Y8553D1*
X21931Y8554D1*
X21892Y8513D1*
X21796Y8445D1*
X21666Y8412D1*
X21682Y8379D1*
X21750Y8283D1*
X21782Y8158D1*
X21783Y7370D1*
X21850Y7305D1*
X21918Y7209D1*
X21934Y7172D1*
X22016Y7295D1*
X22101Y7376D1*
X22202Y7437D1*
X22314Y7476D1*
X22431Y7490D1*
X22493Y7484D1*
X23175Y8164D1*
X23271Y8232D1*
X23395Y8265D1*
X24412D1*
X20937Y7167D2*
X21016Y7295D1*
X21093Y7369D1*
X21091Y7989D1*
X20945Y8044D1*
X20727D1*
X20709Y7906D1*
X20665Y7797D1*
X20594Y7703D1*
X20501Y7630D1*
X20393Y7583D1*
X20295Y7568D1*
X20378Y7485D1*
X20431Y7490D1*
X20548Y7479D1*
X20660Y7443D1*
X20762Y7384D1*
X20850Y7305D1*
X20918Y7209D1*
X20934Y7172D1*
X17497Y6389D2*
X17361Y6390D1*
X17246Y6418D1*
X17141Y6470D1*
X17048Y6544D1*
X16974Y6635D1*
X16939Y6704D1*
X16880Y6606D1*
X16800Y6520D1*
X16703Y6453D1*
X16594Y6407D1*
X16478Y6386D1*
X16361Y6390D1*
X16246Y6418D1*
X16141Y6470D1*
X16048Y6544D1*
X15974Y6635D1*
X15939Y6704D1*
X15880Y6606D1*
X15800Y6520D1*
X15703Y6453D1*
X15594Y6407D1*
X15478Y6386D1*
X15361Y6390D1*
X15246Y6418D1*
X15141Y6470D1*
X15048Y6544D1*
X14974Y6635D1*
X14939Y6704D1*
X14880Y6606D1*
X14800Y6520D1*
X14703Y6453D1*
X14594Y6407D1*
X14478Y6386D1*
X14361Y6390D1*
X14243Y6420D1*
X14226Y6366D1*
X14161Y6255D1*
X13954Y6047D1*
X14509Y6049D1*
Y5912D1*
X14623Y5984D1*
X14733Y6026D1*
X14849Y6047D1*
X14967Y6045D1*
X15082Y6020D1*
X15191Y5974D1*
X15288Y5908D1*
X15372Y5824D1*
X15398Y5784D1*
X15437Y5840D1*
X15523Y5921D1*
X15623Y5984D1*
X15733Y6026D1*
X15849Y6047D1*
X15967Y6045D1*
X16082Y6020D1*
X16191Y5974D1*
X16288Y5908D1*
X16372Y5824D1*
X16398Y5784D1*
X16437Y5840D1*
X16523Y5921D1*
X16623Y5984D1*
X16733Y6026D1*
X16849Y6047D1*
X16967Y6045D1*
X17082Y6020D1*
X17191Y5974D1*
X17288Y5908D1*
X17372Y5824D1*
X17398Y5784D1*
X17437Y5840D1*
X17523Y5921D1*
X17623Y5984D1*
X17733Y6026D1*
X17838Y6045D1*
X17495Y6390D1*
X14937Y7167D2*
X15016Y7295D1*
X15101Y7376D1*
X15202Y7437D1*
X15314Y7476D1*
X15431Y7490D1*
X15493Y7484D1*
X15655Y7644D1*
X15751Y7712D1*
X15875Y7745D1*
X15980Y7747D1*
X15983Y7787D1*
X14298Y7788D1*
X14246Y7642D1*
Y7454D1*
X14314Y7476D1*
X14431Y7490D1*
X14548Y7479D1*
X14660Y7443D1*
X14762Y7384D1*
X14850Y7305D1*
X14918Y7209D1*
X14934Y7172D1*
X13328Y6398D2*
X13246Y6418D1*
X13141Y6470D1*
X13048Y6544D1*
X12974Y6635D1*
X12939Y6704D1*
X12880Y6606D1*
X12800Y6520D1*
X12703Y6453D1*
X12594Y6407D1*
X12478Y6386D1*
X12361Y6390D1*
X12246Y6418D1*
X12210Y6436D1*
X12209Y5833D1*
X12355Y5783D1*
X12809D1*
X12818Y5945D1*
X12857Y6056D1*
X12924Y6153D1*
X13013Y6230D1*
X13119Y6281D1*
X13231Y6303D1*
X13325Y6397D1*
X13383Y7484D2*
X13431Y7490D1*
X13551Y7477D1*
X13554Y7878D1*
X13574Y7994D1*
X13638Y8105D1*
X13793Y8261D1*
X13655Y8401D1*
X13587Y8497D1*
X13554Y8622D1*
Y9395D1*
X13478Y9386D1*
X13361Y9390D1*
X13243Y9420D1*
X13246Y8144D1*
Y7617D1*
X13377Y7487D1*
X12206Y7439D2*
X12314Y7476D1*
X12431Y7490D1*
X12551Y7477D1*
X12554Y9397D1*
X12478Y9386D1*
X12361Y9390D1*
X12246Y9418D1*
X12210Y9436D1*
X12209Y7442D1*
X12206Y10439D2*
X12314Y10476D1*
X12431Y10490D1*
X12551Y10477D1*
X12554Y12160D1*
X12574Y12276D1*
X12638Y12387D1*
X12809Y12559D1*
X12165D1*
X12240Y12474D1*
X12294Y12369D1*
X12321Y12215D1*
X12305Y12098D1*
X12261Y11989D1*
X12210Y11921D1*
X12209Y10439D1*
X13247Y10453D2*
X13314Y10476D1*
X13431Y10490D1*
X13551Y10477D1*
X13552Y10936D1*
X13482Y10988D1*
X13404Y11076D1*
X13344Y11177D1*
X13304Y11288D1*
X13287Y11405D1*
X13292Y11523D1*
X13319Y11637D1*
X13369Y11744D1*
X13437Y11840D1*
X13523Y11921D1*
X13623Y11984D1*
X13733Y12026D1*
X13849Y12047D1*
X13967Y12045D1*
X14082Y12020D1*
X14191Y11974D1*
X14288Y11908D1*
X14372Y11824D1*
X14398Y11784D1*
X14437Y11840D1*
X14523Y11921D1*
X14623Y11984D1*
X14733Y12026D1*
X14849Y12047D1*
X15007Y12036D1*
X14960Y12070D1*
X13295D1*
X13246Y11924D1*
Y10459D1*
X14497Y9389D2*
X14361Y9390D1*
X14243Y9420D1*
X14246Y8786D1*
X14392Y8736D1*
X15443Y8738D1*
X15446Y8778D1*
X15249Y8779D1*
X15133Y8799D1*
X15022Y8864D1*
X14496Y9389D1*
X14240Y10451D2*
X14314Y10476D1*
X14431Y10490D1*
X14493Y10484D1*
X14837Y10826D1*
X14682Y10864D1*
X14576Y10916D1*
X14482Y10988D1*
X14398Y11085D1*
X14336Y11010D1*
X14243Y10932D1*
X14244Y10455D1*
X19117Y10386D2*
X19202Y10437D1*
X19314Y10476D1*
X19431Y10490D1*
X19551Y10477D1*
X19554Y10718D1*
X19482Y10811D1*
X19443Y10947D1*
X19442Y11159D1*
X19410Y11102D1*
X19336Y11010D1*
X19243Y10932D1*
X19244Y10656D1*
X19224Y10540D1*
X19159Y10429D1*
X19124Y10393D1*
X20247Y10453D2*
X20314Y10476D1*
X20431Y10490D1*
X20548Y10479D1*
X20663Y10441D1*
X20246Y10857D1*
Y10457D1*
X16983Y10834D2*
X16914Y10825D1*
X16796Y10834D1*
X16682Y10864D1*
X16576Y10916D1*
X16482Y10988D1*
X16398Y11085D1*
X16336Y11010D1*
X16243Y10932D1*
X16222Y10792D1*
X16218Y10782D1*
X16254Y10746D1*
X16981D1*
X16984Y10832D1*
X36636Y10833D2*
X36511Y10864D1*
X36405Y10916D1*
X36311Y10988D1*
X36227Y11085D1*
X36165Y11010D1*
X36075Y10934D1*
X35972Y10877D1*
X35860Y10840D1*
X35743Y10825D1*
X35625Y10834D1*
X35511Y10864D1*
X35405Y10916D1*
X35311Y10988D1*
X35227Y11085D1*
X35165Y11010D1*
X35075Y10934D1*
X34972Y10877D1*
X34860Y10840D1*
X34743Y10825D1*
X34625Y10834D1*
X34511Y10864D1*
X34405Y10916D1*
X34311Y10988D1*
X34227Y11085D1*
X34165Y11010D1*
X34071Y10932D1*
X34072Y8274D1*
X36631Y10831D1*
X35230Y11789D2*
X35266Y11840D1*
X35352Y11921D1*
X35452Y11984D1*
X35562Y12026D1*
X35638Y12040D1*
X35511Y12070D1*
X34585D1*
X34678Y12047D1*
X34796Y12045D1*
X34911Y12020D1*
X35020Y11974D1*
X35117Y11908D1*
X35200Y11824D1*
X35227Y11784D1*
X21342Y5320D2*
X21318Y5262D1*
X23107Y5261D1*
X23075Y5417D1*
X23085Y5534D1*
X23114Y5614D1*
X21323Y5613D1*
X21355Y5477D1*
X21342Y5320D1*
X18356Y7788D2*
X18355Y7749D1*
X18852Y7746D1*
X19904D1*
X19875Y7790D1*
X18358Y7788D1*
D16*
X24937Y7437D3*
D17*
Y9437D3*
D18*
X5687Y10437D3*
D19*
Y9437D3*
Y8437D3*
Y7437D3*
Y6437D3*
D21*
X24937Y8437D3*
D22*
Y11437D3*
D23*
X20937D3*
D24*
X23437Y6937D3*
D25*
X22437D3*
X21437D3*
X20437D3*
X19437D3*
X18437D3*
X17437D3*
X16437D3*
X15437D3*
X14437D3*
X13437D3*
X12437D3*
Y9937D3*
X13437D3*
X14437D3*
X15437D3*
X16437D3*
X17437D3*
X18437D3*
X19437D3*
X20437D3*
X21437D3*
X22437D3*
X23437D3*
D26*
X13898Y5437D3*
D27*
X14898D3*
X15898D3*
X16898D3*
X17898D3*
X18898D3*
Y11437D3*
X17898D3*
X16898D3*
X15898D3*
X14898D3*
X13898D3*
D26*
X33726Y5437D3*
D27*
X34726D3*
X35726D3*
X36726D3*
X37726D3*
X38726D3*
Y11437D3*
X37726D3*
X36726D3*
X35726D3*
X34726D3*
X33726D3*
M02*
